<?xml version="1.0" encoding="UTF-8"?><svg id="Lag_1" xmlns="http://www.w3.org/2000/svg" width="21.18mm" height="19.21mm" viewBox="0 0 60.05 54.45"><defs><style>.cls-1{fill:#fff;}</style></defs><g id="Group_53"><path id="Path_104" class="cls-1" d="M2.27,4.44h6.36l9.06,32.78c.27,.96,1.15,1.63,2.15,1.63h27.86c.88,0,1.68-.52,2.03-1.33l10.14-23.31c.29-.69,.22-1.48-.19-2.11-.41-.63-1.1-1-1.85-1H27.05c-1.23-.03-2.24,.95-2.27,2.17s.95,2.24,2.17,2.27c.03,0,.06,0,.09,0h27.38l-8.21,18.87H21.5L12.44,1.63C12.17,.66,11.29,0,10.29,0H2.27C1.04-.03,.03,.95,0,2.17s.95,2.24,2.17,2.27c.03,0,.06,0,.09,0Z"/><path id="Path_105" class="cls-1" d="M17.73,54.45c2.78,0,5.03-2.25,5.03-5.03,0-2.78-2.25-5.03-5.03-5.03s-5.03,2.25-5.03,5.03c0,2.78,2.25,5.03,5.03,5.03Z"/><path id="Path_106" class="cls-1" d="M49.17,54.45h.37c2.87-.1,5.11-2.51,5.01-5.38s-2.51-5.11-5.38-5.01c-2.87,.1-5.11,2.51-5.01,5.38,.1,2.73,2.29,4.91,5.01,5.01Z"/></g></svg>