<?xml version="1.0" encoding="utf-8"?>
<!-- Generator: Adobe Illustrator 26.5.2, SVG Export Plug-In . SVG Version: 6.00 Build 0)  -->
<svg version="1.1" id="Lag_1" xmlns="http://www.w3.org/2000/svg" xmlns:xlink="http://www.w3.org/1999/xlink" x="0px" y="0px"
	 viewBox="0 0 595.3 841.9" style="enable-background:new 0 0 595.3 841.9;" xml:space="preserve">
<style type="text/css">
	.st0{fill:#020202;}
</style>
<g id="Group_53" transform="translate(0 0)">
	<path id="Path_104" class="st0" d="M269.6,398.1h6.4l9.1,32.8c0.3,1,1.1,1.6,2.1,1.6H315c0.9,0,1.7-0.5,2-1.3l10.1-23.3
		c0.3-0.7,0.2-1.5-0.2-2.1c-0.4-0.6-1.1-1-1.8-1h-30.8c-1.2,0-2.2,0.9-2.3,2.2s0.9,2.2,2.2,2.3c0,0,0.1,0,0.1,0h27.4l-8.2,18.9
		h-24.7l-9.1-32.8c-0.3-1-1.1-1.6-2.1-1.6h-8c-1.2,0-2.2,0.9-2.3,2.2C267.3,397,268.2,398,269.6,398.1
		C269.5,398.1,269.5,398.1,269.6,398.1z"/>
	<path id="Path_105" class="st0" d="M285,448.1c2.8,0,5-2.3,5-5c0-2.8-2.3-5-5-5c-2.8,0-5,2.3-5,5C280,445.8,282.2,448.1,285,448.1z
		"/>
	<path id="Path_106" class="st0" d="M316.5,448.1h0.4c2.9-0.1,5.1-2.5,5-5.4s-2.5-5.1-5.4-5c-2.9,0.1-5.1,2.5-5,5.4
		C311.6,445.8,313.7,448,316.5,448.1z"/>
</g>
</svg>
