<?xml version="1.0" encoding="UTF-8"?><svg id="Lag_1" xmlns="http://www.w3.org/2000/svg" width="43.56mm" height="53.14mm" xmlns:xlink="http://www.w3.org/1999/xlink" viewBox="0 0 123.47 150.65"><defs><style>.cls-1{stroke:url(#Ikke-navngivet_forløb_26-6);}.cls-1,.cls-2,.cls-3,.cls-4,.cls-5,.cls-6,.cls-7,.cls-8,.cls-9,.cls-10,.cls-11,.cls-12,.cls-13,.cls-14,.cls-15,.cls-16,.cls-17,.cls-18,.cls-19,.cls-20,.cls-21,.cls-22,.cls-23,.cls-24{fill:none;stroke-miterlimit:10;}.cls-2{stroke:url(#Ikke-navngivet_forløb_26-9);}.cls-3{stroke:url(#Ikke-navngivet_forløb_26-2);}.cls-4{stroke:url(#Ikke-navngivet_forløb_26-8);}.cls-5{stroke:url(#Ikke-navngivet_forløb_26-7);}.cls-6{stroke:url(#Ikke-navngivet_forløb_26-4);}.cls-7{stroke:url(#Ikke-navngivet_forløb_26-3);}.cls-8{stroke:url(#Ikke-navngivet_forløb_26-5);}.cls-25{fill:#f9edbd;}.cls-26{fill:#ed690f;}.cls-27{fill:#492a0f;}.cls-9{stroke:url(#Ikke-navngivet_forløb_26-24);}.cls-10{stroke:url(#Ikke-navngivet_forløb_26-22);}.cls-11{stroke:url(#Ikke-navngivet_forløb_26-23);}.cls-12{stroke:url(#Ikke-navngivet_forløb_26-18);}.cls-13{stroke:url(#Ikke-navngivet_forløb_26-20);}.cls-14{stroke:url(#Ikke-navngivet_forløb_26-10);}.cls-15{stroke:url(#Ikke-navngivet_forløb_26-11);}.cls-16{stroke:url(#Ikke-navngivet_forløb_26-15);}.cls-17{stroke:url(#Ikke-navngivet_forløb_26-14);}.cls-18{stroke:url(#Ikke-navngivet_forløb_26-17);}.cls-19{stroke:url(#Ikke-navngivet_forløb_26-13);}.cls-20{stroke:url(#Ikke-navngivet_forløb_26-16);}.cls-21{stroke:url(#Ikke-navngivet_forløb_26-19);}.cls-22{stroke:url(#Ikke-navngivet_forløb_26-12);}.cls-23{stroke:url(#Ikke-navngivet_forløb_26-21);}.cls-24{stroke:url(#Ikke-navngivet_forløb_26);}</style><linearGradient id="Ikke-navngivet_forløb_26" x1="16.28" y1="100.14" x2="107.2" y2="100.14" gradientUnits="userSpaceOnUse"><stop offset=".06" stop-color="#ffde00"/><stop offset=".82" stop-color="#e94e1b"/></linearGradient><linearGradient id="Ikke-navngivet_forløb_26-2" x1="18" y1="100.14" x2="105.47" y2="100.14" xlink:href="#Ikke-navngivet_forløb_26"/><linearGradient id="Ikke-navngivet_forløb_26-3" x1="19.73" x2="103.75" xlink:href="#Ikke-navngivet_forløb_26"/><linearGradient id="Ikke-navngivet_forløb_26-4" x1="21.45" x2="102.02" xlink:href="#Ikke-navngivet_forløb_26"/><linearGradient id="Ikke-navngivet_forløb_26-5" x1="23.18" x2="100.3" xlink:href="#Ikke-navngivet_forløb_26"/><linearGradient id="Ikke-navngivet_forløb_26-6" x1="24.9" y1="100.14" x2="98.57" y2="100.14" xlink:href="#Ikke-navngivet_forløb_26"/><linearGradient id="Ikke-navngivet_forløb_26-7" x1="26.63" x2="96.84" xlink:href="#Ikke-navngivet_forløb_26"/><linearGradient id="Ikke-navngivet_forløb_26-8" x1="28.35" x2="95.12" xlink:href="#Ikke-navngivet_forløb_26"/><linearGradient id="Ikke-navngivet_forløb_26-9" x1="30.08" x2="93.39" xlink:href="#Ikke-navngivet_forløb_26"/><linearGradient id="Ikke-navngivet_forløb_26-10" x1="31.81" y1="100.14" x2="91.67" y2="100.14" xlink:href="#Ikke-navngivet_forløb_26"/><linearGradient id="Ikke-navngivet_forløb_26-11" x1="33.53" x2="89.94" xlink:href="#Ikke-navngivet_forløb_26"/><linearGradient id="Ikke-navngivet_forløb_26-12" x1="35.26" x2="88.22" xlink:href="#Ikke-navngivet_forløb_26"/><linearGradient id="Ikke-navngivet_forløb_26-13" x1="36.98" x2="86.49" xlink:href="#Ikke-navngivet_forløb_26"/><linearGradient id="Ikke-navngivet_forløb_26-14" x1="38.71" x2="84.76" xlink:href="#Ikke-navngivet_forløb_26"/><linearGradient id="Ikke-navngivet_forløb_26-15" x1="40.43" x2="83.04" xlink:href="#Ikke-navngivet_forløb_26"/><linearGradient id="Ikke-navngivet_forløb_26-16" x1="42.16" x2="81.31" xlink:href="#Ikke-navngivet_forløb_26"/><linearGradient id="Ikke-navngivet_forløb_26-17" x1="43.88" x2="79.59" xlink:href="#Ikke-navngivet_forløb_26"/><linearGradient id="Ikke-navngivet_forløb_26-18" x1="45.61" x2="77.86" xlink:href="#Ikke-navngivet_forløb_26"/><linearGradient id="Ikke-navngivet_forløb_26-19" x1="47.34" x2="76.14" xlink:href="#Ikke-navngivet_forløb_26"/><linearGradient id="Ikke-navngivet_forløb_26-20" x1="49.06" y1="100.14" x2="74.41" y2="100.14" xlink:href="#Ikke-navngivet_forløb_26"/><linearGradient id="Ikke-navngivet_forløb_26-21" x1="50.79" x2="72.69" xlink:href="#Ikke-navngivet_forløb_26"/><linearGradient id="Ikke-navngivet_forløb_26-22" x1="52.51" x2="70.96" xlink:href="#Ikke-navngivet_forløb_26"/><linearGradient id="Ikke-navngivet_forløb_26-23" x1="54.24" x2="69.23" xlink:href="#Ikke-navngivet_forløb_26"/><linearGradient id="Ikke-navngivet_forløb_26-24" x1="55.96" x2="67.51" xlink:href="#Ikke-navngivet_forløb_26"/></defs><rect class="cls-25" y="32.67" width="123.47" height="117.97"/><g><path class="cls-27" d="M7.68,23.94v-1.4h3.64v1.68c0,1.75,.77,2.38,2,2.38s2-.63,2-2.45c0-2.03-.77-3.33-3.29-5.53-3.22-2.83-4.27-4.83-4.27-7.63,0-3.85,2-6.09,5.74-6.09s5.6,2.24,5.6,6.16v1.02h-3.64v-1.26c0-1.75-.7-2.42-1.93-2.42s-1.93,.67-1.93,2.35c0,1.79,.81,3.08,3.33,5.29,3.22,2.84,4.24,4.8,4.24,7.84,0,3.99-2.03,6.23-5.81,6.23s-5.67-2.24-5.67-6.16Z"/><path class="cls-27" d="M21.09,23.94V11.06c0-3.92,2.06-6.16,5.85-6.16s5.85,2.24,5.85,6.16v12.88c0,3.92-2.06,6.16-5.85,6.16s-5.85-2.24-5.85-6.16Zm7.84,.25V10.81c0-1.75-.77-2.42-2-2.42s-2,.67-2,2.42v13.37c0,1.75,.77,2.42,2,2.42s2-.67,2-2.42Z"/><path class="cls-27" d="M35.23,23.94V5.25h3.85V24.22c0,1.75,.74,2.38,1.96,2.38s1.96-.63,1.96-2.38V5.25h3.71V23.94c0,3.92-1.96,6.16-5.74,6.16s-5.74-2.24-5.74-6.16Z"/><path class="cls-27" d="M52.45,8.75h-4.03v-3.5h11.9v3.5h-4.03V29.75h-3.85V8.75Z"/><path class="cls-27" d="M62.18,5.25h3.85V15.22h4.13V5.25h3.85V29.75h-3.85v-11.03h-4.13v11.03h-3.85V5.25Z"/><path class="cls-27" d="M76.88,5.25h10.5v3.5h-6.65v6.48h5.29v3.5h-5.29v7.53h6.65v3.5h-10.5V5.25Z"/><path class="cls-27" d="M89.58,5.25h5.71c3.99,0,5.71,1.85,5.71,5.64v1.51c0,2.52-.8,4.13-2.52,4.83v.07c1.93,.6,2.56,2.42,2.56,5.18v4.31c0,1.19,.04,2.06,.42,2.98h-3.92c-.21-.63-.35-1.02-.35-3.01v-4.48c0-2.28-.67-3.01-2.42-3.01h-1.33v10.5h-3.85V5.25Zm5.25,10.5c1.44,0,2.31-.63,2.31-2.59v-1.89c0-1.75-.59-2.52-1.96-2.52h-1.75v7h1.4Z"/><path class="cls-27" d="M103.69,5.25h4.83l3.75,14.67h.07V5.25h3.43V29.75h-3.96l-4.62-17.89h-.07V29.75h-3.43V5.25Z"/></g><g><path class="cls-26" d="M21.13,46.62c.35,.94,.77,1.7,1.25,2.26,.83,.98,1.87,1.47,3.1,1.47,.67,0,1.25-.21,1.74-.64,.49-.42,.73-1.02,.73-1.77,0-.68-.25-1.28-.74-1.78-.32-.32-1-.8-2.03-1.45l-1.79-1.12c-.54-.34-.97-.69-1.29-1.04-.59-.66-.89-1.39-.89-2.19,0-1.06,.35-1.94,1.06-2.65s1.64-1.06,2.8-1.06c.48,0,1.05,.12,1.73,.35,.67,.24,1.06,.35,1.15,.35,.26,0,.44-.06,.54-.18,.1-.12,.18-.3,.23-.52h.43l.46,4.47h-.5c-.34-1.35-.89-2.29-1.65-2.82-.76-.53-1.5-.8-2.24-.8-.57,0-1.08,.17-1.5,.51-.43,.34-.64,.81-.64,1.41,0,.54,.16,1,.49,1.38,.33,.39,.84,.8,1.53,1.22l1.84,1.14c1.15,.71,1.97,1.36,2.44,1.96,.47,.6,.7,1.31,.7,2.13,0,1.1-.42,2.02-1.25,2.76-.83,.74-1.89,1.11-3.18,1.11-.65,0-1.33-.12-2.04-.37-.71-.25-1.11-.37-1.21-.37-.25,0-.41,.08-.5,.23-.09,.15-.14,.31-.17,.48h-.46l-.63-4.47h.48Z"/><path class="cls-26" d="M34.19,38.51c1.29-1.24,2.88-1.86,4.77-1.86s3.49,.62,4.78,1.87c1.4,1.35,2.1,3.14,2.1,5.38s-.72,4.09-2.17,5.43c-1.3,1.2-2.87,1.8-4.71,1.8-1.97,0-3.6-.67-4.9-2-1.32-1.36-1.98-3.11-1.98-5.24,0-2.24,.7-4.04,2.11-5.39Zm1.57,10.29c.87,1.06,1.94,1.58,3.2,1.58s2.3-.51,3.18-1.54c.88-1.03,1.32-2.67,1.32-4.94s-.44-3.94-1.33-4.96-1.94-1.53-3.16-1.53-2.33,.53-3.2,1.58c-.87,1.06-1.31,2.69-1.31,4.91s.43,3.84,1.3,4.9Z"/><path class="cls-26" d="M52.86,36.96v.39c-.81,.05-1.33,.19-1.57,.4-.24,.22-.36,.71-.36,1.48v6.72c0,1.1,.15,1.96,.45,2.57,.56,1.12,1.62,1.68,3.19,1.68,1.72,0,2.87-.57,3.46-1.72,.33-.64,.49-1.63,.49-2.97v-5.47c0-1.14-.14-1.86-.41-2.15-.27-.29-.79-.47-1.56-.55v-.39h4.86v.39c-.81,.09-1.35,.29-1.59,.59-.25,.3-.37,1.01-.37,2.11v5.47c0,1.45-.22,2.58-.67,3.39-.82,1.5-2.38,2.25-4.68,2.25s-3.81-.74-4.63-2.21c-.44-.79-.67-1.84-.67-3.14v-6.56c0-.77-.12-1.26-.35-1.47-.24-.22-.75-.35-1.54-.42v-.39h5.96Z"/><path class="cls-26" d="M62.02,50.46c.87-.09,1.43-.29,1.67-.59,.25-.3,.37-1.01,.37-2.12v-9.25l-.29-.34c-.31-.36-.57-.59-.78-.67-.22-.09-.54-.14-.97-.15v-.39h3.58l8.11,10.05v-6.98c0-1.15-.17-1.89-.51-2.24-.23-.22-.72-.37-1.5-.44v-.39h4.93v.39c-.8,.08-1.33,.28-1.6,.58s-.4,1.01-.4,2.11v11.05h-.36l-9.29-11.52v8.17c0,1.15,.17,1.9,.5,2.24,.22,.23,.71,.38,1.47,.46v.39h-4.93v-.39Z"/><path class="cls-26" d="M77.29,50.46c.77-.08,1.26-.22,1.5-.41s.35-.69,.35-1.47v-9.34c0-.77-.11-1.26-.34-1.48s-.73-.36-1.51-.41v-.39h5.66c1.91,0,3.52,.31,4.84,.94,2.38,1.13,3.57,3.14,3.57,6.05,0,1.05-.21,2.04-.64,2.98-.43,.94-1.07,1.74-1.93,2.39-.55,.41-1.11,.72-1.7,.93-1.07,.4-2.39,.59-3.96,.59h-5.83v-.39Zm4.23-.55c.17,.11,.51,.16,1.04,.16,1.64,0,2.99-.32,4.05-.98,1.63-1,2.44-2.71,2.44-5.12,0-2.16-.67-3.78-2.01-4.86-1.15-.93-2.67-1.4-4.56-1.4-.47,0-.79,.05-.96,.15-.17,.1-.25,.33-.25,.68v10.68c0,.34,.08,.57,.25,.68Z"/><path class="cls-26" d="M93.47,46.62c.36,.94,.77,1.7,1.25,2.26,.83,.98,1.87,1.47,3.1,1.47,.67,0,1.25-.21,1.74-.64s.73-1.02,.73-1.77c0-.68-.25-1.28-.74-1.78-.32-.32-1-.8-2.03-1.45l-1.79-1.12c-.54-.34-.97-.69-1.29-1.04-.59-.66-.89-1.39-.89-2.19,0-1.06,.35-1.94,1.06-2.65s1.64-1.06,2.8-1.06c.48,0,1.05,.12,1.73,.35,.67,.24,1.06,.35,1.15,.35,.26,0,.44-.06,.54-.18,.1-.12,.18-.3,.23-.52h.43l.46,4.47h-.5c-.34-1.35-.89-2.29-1.65-2.82-.76-.53-1.5-.8-2.24-.8-.57,0-1.08,.17-1.5,.51-.43,.34-.64,.81-.64,1.41,0,.54,.16,1,.49,1.38,.33,.39,.84,.8,1.53,1.22l1.84,1.14c1.15,.71,1.97,1.36,2.44,1.96,.47,.6,.7,1.31,.7,2.13,0,1.1-.42,2.02-1.25,2.76-.83,.74-1.89,1.11-3.18,1.11-.65,0-1.33-.12-2.04-.37-.71-.25-1.11-.37-1.21-.37-.25,0-.41,.08-.5,.23-.09,.15-.14,.31-.17,.48h-.46l-.62-4.47h.48Z"/></g><g><ellipse class="cls-24" cx="61.74" cy="100.14" rx="44.96" ry="42.51"/><ellipse class="cls-3" cx="61.74" cy="100.14" rx="43.24" ry="40.88"/><ellipse class="cls-7" cx="61.74" cy="100.14" rx="41.51" ry="39.25"/><ellipse class="cls-6" cx="61.74" cy="100.14" rx="39.78" ry="37.62"/><ellipse class="cls-8" cx="61.74" cy="100.14" rx="38.06" ry="35.99"/><ellipse class="cls-1" cx="61.74" cy="100.14" rx="36.33" ry="34.36"/><ellipse class="cls-5" cx="61.74" cy="100.14" rx="34.61" ry="32.72"/><ellipse class="cls-4" cx="61.74" cy="100.14" rx="32.88" ry="31.09"/><ellipse class="cls-2" cx="61.74" cy="100.14" rx="31.16" ry="29.46"/><ellipse class="cls-14" cx="61.74" cy="100.14" rx="29.43" ry="27.83"/><ellipse class="cls-15" cx="61.74" cy="100.14" rx="27.71" ry="26.2"/><ellipse class="cls-22" cx="61.74" cy="100.14" rx="25.98" ry="24.57"/><ellipse class="cls-19" cx="61.74" cy="100.14" rx="24.25" ry="22.93"/><ellipse class="cls-17" cx="61.74" cy="100.14" rx="22.53" ry="21.3"/><ellipse class="cls-16" cx="61.74" cy="100.14" rx="20.8" ry="19.67"/><ellipse class="cls-20" cx="61.74" cy="100.14" rx="19.08" ry="18.04"/><ellipse class="cls-18" cx="61.74" cy="100.14" rx="17.35" ry="16.41"/><ellipse class="cls-12" cx="61.74" cy="100.14" rx="15.63" ry="14.78"/><ellipse class="cls-21" cx="61.74" cy="100.14" rx="13.9" ry="13.14"/><ellipse class="cls-13" cx="61.74" cy="100.14" rx="12.18" ry="11.51"/><ellipse class="cls-23" cx="61.74" cy="100.14" rx="10.45" ry="9.88"/><ellipse class="cls-10" cx="61.74" cy="100.14" rx="8.72" ry="8.25"/><ellipse class="cls-11" cx="61.74" cy="100.14" rx="7" ry="6.62"/><ellipse class="cls-9" cx="61.74" cy="100.14" rx="5.27" ry="4.99"/></g></svg>