<?xml version="1.0" encoding="UTF-8"?><svg id="Lag_1" xmlns="http://www.w3.org/2000/svg" width="73.45mm" height="41.97mm" xmlns:xlink="http://www.w3.org/1999/xlink" viewBox="0 0 208.21 118.97"><defs><style>.cls-1{stroke:url(#Ikke-navngivet_forløb_24-9);}.cls-1,.cls-2,.cls-3,.cls-4,.cls-5,.cls-6,.cls-7,.cls-8,.cls-9,.cls-10,.cls-11,.cls-12,.cls-13,.cls-14,.cls-15,.cls-16,.cls-17,.cls-18,.cls-19,.cls-20,.cls-21,.cls-22,.cls-23,.cls-24,.cls-25,.cls-26,.cls-27,.cls-28,.cls-29,.cls-30,.cls-31,.cls-32,.cls-33,.cls-34,.cls-35,.cls-36{stroke-miterlimit:10;}.cls-1,.cls-2,.cls-3,.cls-4,.cls-5,.cls-6,.cls-7,.cls-8,.cls-10,.cls-11,.cls-12,.cls-13,.cls-14,.cls-15,.cls-16,.cls-17,.cls-18,.cls-19,.cls-20,.cls-21,.cls-22,.cls-23,.cls-24,.cls-25,.cls-26,.cls-27,.cls-28,.cls-29,.cls-30,.cls-31,.cls-32,.cls-33,.cls-34,.cls-35,.cls-36{fill:none;}.cls-2{stroke:url(#Ikke-navngivet_forløb_24-7);}.cls-3{stroke:url(#Ikke-navngivet_forløb_24-5);}.cls-4{stroke:url(#Ikke-navngivet_forløb_24-4);}.cls-5{stroke:url(#Ikke-navngivet_forløb_24-6);}.cls-6{stroke:url(#Ikke-navngivet_forløb_24-3);}.cls-7{stroke:url(#Ikke-navngivet_forløb_24-2);}.cls-8{stroke:url(#Ikke-navngivet_forløb_24-8);}.cls-37{fill:#f76806;}.cls-38{fill:#51290b;}.cls-9{fill:#f9edbd;stroke:#f79719;}.cls-10{stroke:url(#Ikke-navngivet_forløb_24-35);}.cls-11{stroke:url(#Ikke-navngivet_forløb_24-34);}.cls-12{stroke:url(#Ikke-navngivet_forløb_24-31);}.cls-13{stroke:url(#Ikke-navngivet_forløb_24-30);}.cls-14{stroke:url(#Ikke-navngivet_forløb_24-33);}.cls-15{stroke:url(#Ikke-navngivet_forløb_24-32);}.cls-16{stroke:url(#Ikke-navngivet_forløb_24-11);}.cls-17{stroke:url(#Ikke-navngivet_forløb_24-20);}.cls-18{stroke:url(#Ikke-navngivet_forløb_24-21);}.cls-19{stroke:url(#Ikke-navngivet_forløb_24-10);}.cls-20{stroke:url(#Ikke-navngivet_forløb_24-24);}.cls-21{stroke:url(#Ikke-navngivet_forløb_24-26);}.cls-22{stroke:url(#Ikke-navngivet_forløb_24-27);}.cls-23{stroke:url(#Ikke-navngivet_forløb_24-28);}.cls-24{stroke:url(#Ikke-navngivet_forløb_24-29);}.cls-25{stroke:url(#Ikke-navngivet_forløb_24-22);}.cls-26{stroke:url(#Ikke-navngivet_forløb_24-23);}.cls-27{stroke:url(#Ikke-navngivet_forløb_24-25);}.cls-28{stroke:url(#Ikke-navngivet_forløb_24-15);}.cls-29{stroke:url(#Ikke-navngivet_forløb_24-18);}.cls-30{stroke:url(#Ikke-navngivet_forløb_24-19);}.cls-31{stroke:url(#Ikke-navngivet_forløb_24-16);}.cls-32{stroke:url(#Ikke-navngivet_forløb_24-17);}.cls-33{stroke:url(#Ikke-navngivet_forløb_24-14);}.cls-34{stroke:url(#Ikke-navngivet_forløb_24-12);}.cls-35{stroke:url(#Ikke-navngivet_forløb_24-13);}.cls-36{stroke:url(#Ikke-navngivet_forløb_24);}</style><linearGradient id="Ikke-navngivet_forløb_24" x1="89.74" y1="59.49" x2="208.21" y2="59.49" gradientUnits="userSpaceOnUse"><stop offset=".06" stop-color="#ffde00"/><stop offset=".82" stop-color="#e94e1b"/><stop offset="1" stop-color="#251f1b"/><stop offset="1" stop-color="#000"/></linearGradient><linearGradient id="Ikke-navngivet_forløb_24-2" x1="91.27" x2="206.69" xlink:href="#Ikke-navngivet_forløb_24"/><linearGradient id="Ikke-navngivet_forløb_24-3" x1="92.79" x2="205.16" xlink:href="#Ikke-navngivet_forløb_24"/><linearGradient id="Ikke-navngivet_forløb_24-4" x1="94.32" x2="203.64" xlink:href="#Ikke-navngivet_forløb_24"/><linearGradient id="Ikke-navngivet_forløb_24-5" x1="95.84" x2="202.11" xlink:href="#Ikke-navngivet_forløb_24"/><linearGradient id="Ikke-navngivet_forløb_24-6" x1="97.37" x2="200.59" xlink:href="#Ikke-navngivet_forløb_24"/><linearGradient id="Ikke-navngivet_forløb_24-7" x1="98.89" y1="59.49" x2="199.07" y2="59.49" xlink:href="#Ikke-navngivet_forløb_24"/><linearGradient id="Ikke-navngivet_forløb_24-8" x1="100.42" x2="197.54" xlink:href="#Ikke-navngivet_forløb_24"/><linearGradient id="Ikke-navngivet_forløb_24-9" x1="101.94" x2="196.02" xlink:href="#Ikke-navngivet_forløb_24"/><linearGradient id="Ikke-navngivet_forløb_24-10" x1="103.47" y1="59.49" x2="194.49" y2="59.49" xlink:href="#Ikke-navngivet_forløb_24"/><linearGradient id="Ikke-navngivet_forløb_24-11" x1="104.99" x2="192.97" xlink:href="#Ikke-navngivet_forløb_24"/><linearGradient id="Ikke-navngivet_forløb_24-12" x1="106.51" x2="191.44" xlink:href="#Ikke-navngivet_forløb_24"/><linearGradient id="Ikke-navngivet_forløb_24-13" x1="108.04" x2="189.92" xlink:href="#Ikke-navngivet_forløb_24"/><linearGradient id="Ikke-navngivet_forløb_24-14" x1="109.56" x2="188.39" xlink:href="#Ikke-navngivet_forløb_24"/><linearGradient id="Ikke-navngivet_forløb_24-15" x1="111.09" x2="186.87" xlink:href="#Ikke-navngivet_forløb_24"/><linearGradient id="Ikke-navngivet_forløb_24-16" x1="112.61" x2="185.34" xlink:href="#Ikke-navngivet_forløb_24"/><linearGradient id="Ikke-navngivet_forløb_24-17" x1="114.14" y1="59.49" x2="183.82" y2="59.49" xlink:href="#Ikke-navngivet_forløb_24"/><linearGradient id="Ikke-navngivet_forløb_24-18" x1="115.66" x2="182.29" xlink:href="#Ikke-navngivet_forløb_24"/><linearGradient id="Ikke-navngivet_forløb_24-19" x1="117.19" x2="180.77" xlink:href="#Ikke-navngivet_forløb_24"/><linearGradient id="Ikke-navngivet_forløb_24-20" x1="118.71" x2="179.24" xlink:href="#Ikke-navngivet_forløb_24"/><linearGradient id="Ikke-navngivet_forløb_24-21" x1="120.24" x2="177.72" xlink:href="#Ikke-navngivet_forløb_24"/><linearGradient id="Ikke-navngivet_forløb_24-22" x1="121.76" x2="176.19" xlink:href="#Ikke-navngivet_forløb_24"/><linearGradient id="Ikke-navngivet_forløb_24-23" x1="123.29" x2="174.67" xlink:href="#Ikke-navngivet_forløb_24"/><linearGradient id="Ikke-navngivet_forløb_24-24" x1="124.81" x2="173.14" xlink:href="#Ikke-navngivet_forløb_24"/><linearGradient id="Ikke-navngivet_forløb_24-25" x1="126.34" x2="171.62" xlink:href="#Ikke-navngivet_forløb_24"/><linearGradient id="Ikke-navngivet_forløb_24-26" x1="127.86" x2="170.09" xlink:href="#Ikke-navngivet_forløb_24"/><linearGradient id="Ikke-navngivet_forløb_24-27" x1="129.39" x2="168.57" xlink:href="#Ikke-navngivet_forløb_24"/><linearGradient id="Ikke-navngivet_forløb_24-28" x1="130.91" x2="167.04" xlink:href="#Ikke-navngivet_forløb_24"/><linearGradient id="Ikke-navngivet_forløb_24-29" x1="132.44" y1="59.49" x2="165.52" y2="59.49" xlink:href="#Ikke-navngivet_forløb_24"/><linearGradient id="Ikke-navngivet_forløb_24-30" x1="133.96" x2="163.99" xlink:href="#Ikke-navngivet_forløb_24"/><linearGradient id="Ikke-navngivet_forløb_24-31" x1="135.49" x2="162.47" xlink:href="#Ikke-navngivet_forløb_24"/><linearGradient id="Ikke-navngivet_forløb_24-32" x1="137.01" x2="160.94" xlink:href="#Ikke-navngivet_forløb_24"/><linearGradient id="Ikke-navngivet_forløb_24-33" x1="138.54" x2="159.42" xlink:href="#Ikke-navngivet_forløb_24"/><linearGradient id="Ikke-navngivet_forløb_24-34" x1="140.06" y1="59.49" x2="157.89" y2="59.49" xlink:href="#Ikke-navngivet_forløb_24"/><linearGradient id="Ikke-navngivet_forløb_24-35" x1="141.59" x2="156.37" xlink:href="#Ikke-navngivet_forløb_24"/></defs><g><ellipse class="cls-36" cx="148.98" cy="59.49" rx="58.74" ry="57.03"/><ellipse class="cls-7" cx="148.98" cy="59.49" rx="57.21" ry="55.55"/><ellipse class="cls-6" cx="148.98" cy="59.49" rx="55.69" ry="54.07"/><ellipse class="cls-4" cx="148.98" cy="59.49" rx="54.16" ry="52.59"/><ellipse class="cls-3" cx="148.98" cy="59.49" rx="52.64" ry="51.11"/><ellipse class="cls-5" cx="148.98" cy="59.49" rx="51.11" ry="49.63"/><ellipse class="cls-2" cx="148.98" cy="59.49" rx="49.59" ry="48.15"/><ellipse class="cls-8" cx="148.98" cy="59.49" rx="48.06" ry="46.67"/><ellipse class="cls-1" cx="148.98" cy="59.49" rx="46.54" ry="45.19"/><ellipse class="cls-19" cx="148.98" cy="59.49" rx="45.01" ry="43.71"/><ellipse class="cls-16" cx="148.98" cy="59.49" rx="43.49" ry="42.22"/><ellipse class="cls-34" cx="148.98" cy="59.49" rx="41.96" ry="40.74"/><ellipse class="cls-35" cx="148.98" cy="59.49" rx="40.44" ry="39.26"/><ellipse class="cls-33" cx="148.98" cy="59.49" rx="38.91" ry="37.78"/><ellipse class="cls-28" cx="148.98" cy="59.49" rx="37.39" ry="36.3"/><ellipse class="cls-31" cx="148.98" cy="59.49" rx="35.86" ry="34.82"/><ellipse class="cls-32" cx="148.98" cy="59.49" rx="34.34" ry="33.34"/><ellipse class="cls-29" cx="148.98" cy="59.49" rx="32.81" ry="31.86"/><ellipse class="cls-30" cx="148.98" cy="59.49" rx="31.29" ry="30.38"/><ellipse class="cls-17" cx="148.98" cy="59.49" rx="29.76" ry="28.9"/><ellipse class="cls-18" cx="148.98" cy="59.49" rx="28.24" ry="27.42"/><ellipse class="cls-25" cx="148.98" cy="59.49" rx="26.71" ry="25.94"/><ellipse class="cls-26" cx="148.98" cy="59.49" rx="25.19" ry="24.46"/><ellipse class="cls-20" cx="148.98" cy="59.49" rx="23.66" ry="22.98"/><ellipse class="cls-27" cx="148.98" cy="59.49" rx="22.14" ry="21.49"/><ellipse class="cls-21" cx="148.98" cy="59.49" rx="20.61" ry="20.01"/><ellipse class="cls-22" cx="148.98" cy="59.49" rx="19.09" ry="18.53"/><ellipse class="cls-23" cx="148.98" cy="59.49" rx="17.56" ry="17.05"/><ellipse class="cls-24" cx="148.98" cy="59.49" rx="16.04" ry="15.57"/><ellipse class="cls-13" cx="148.98" cy="59.49" rx="14.51" ry="14.09"/><ellipse class="cls-12" cx="148.98" cy="59.49" rx="12.99" ry="12.61"/><ellipse class="cls-15" cx="148.98" cy="59.49" rx="11.46" ry="11.13"/><ellipse class="cls-14" cx="148.98" cy="59.49" rx="9.94" ry="9.65"/><ellipse class="cls-11" cx="148.98" cy="59.49" rx="8.41" ry="8.17"/><ellipse class="cls-10" cx="148.98" cy="59.49" rx="6.89" ry="6.69"/></g><rect class="cls-9" x=".5" y=".5" width="123.47" height="117.97"/><g><path class="cls-38" d="M8.86,46.19v-1.4h3.64v1.68c0,1.75,.77,2.38,2,2.38s2-.63,2-2.45c0-2.03-.77-3.33-3.29-5.53-3.22-2.83-4.27-4.83-4.27-7.63,0-3.85,2-6.09,5.74-6.09s5.6,2.24,5.6,6.16v1.02h-3.64v-1.26c0-1.75-.7-2.42-1.93-2.42s-1.93,.67-1.93,2.35c0,1.79,.81,3.08,3.33,5.29,3.22,2.84,4.24,4.8,4.24,7.84,0,3.99-2.03,6.23-5.81,6.23s-5.67-2.24-5.67-6.16Z"/><path class="cls-38" d="M22.27,46.19v-12.88c0-3.92,2.06-6.16,5.85-6.16s5.85,2.24,5.85,6.16v12.88c0,3.92-2.06,6.16-5.85,6.16s-5.85-2.24-5.85-6.16Zm7.84,.25v-13.37c0-1.75-.77-2.42-2-2.42s-2,.67-2,2.42v13.37c0,1.75,.77,2.42,2,2.42s2-.67,2-2.42Z"/><path class="cls-38" d="M36.41,46.19V27.5h3.85v18.97c0,1.75,.74,2.38,1.96,2.38s1.96-.63,1.96-2.38V27.5h3.71v18.69c0,3.92-1.96,6.16-5.74,6.16s-5.74-2.24-5.74-6.16Z"/><path class="cls-38" d="M53.63,31h-4.03v-3.5h11.9v3.5h-4.03v21h-3.85V31Z"/><path class="cls-38" d="M63.36,27.5h3.85v9.98h4.13v-9.98h3.85v24.5h-3.85v-11.03h-4.13v11.03h-3.85V27.5Z"/><path class="cls-38" d="M78.06,27.5h10.5v3.5h-6.65v6.48h5.29v3.5h-5.29v7.53h6.65v3.5h-10.5V27.5Z"/><path class="cls-38" d="M90.76,27.5h5.71c3.99,0,5.71,1.85,5.71,5.64v1.51c0,2.52-.8,4.13-2.52,4.83v.07c1.93,.6,2.56,2.42,2.56,5.18v4.31c0,1.19,.04,2.06,.42,2.98h-3.92c-.21-.63-.35-1.02-.35-3.01v-4.48c0-2.28-.67-3.01-2.42-3.01h-1.33v10.5h-3.85V27.5Zm5.25,10.5c1.44,0,2.31-.63,2.31-2.59v-1.89c0-1.75-.6-2.52-1.96-2.52h-1.75v7h1.4Z"/><path class="cls-38" d="M104.87,27.5h4.83l3.75,14.67h.07v-14.67h3.43v24.5h-3.96l-4.62-17.89h-.07v17.89h-3.43V27.5Z"/></g><g><path class="cls-37" d="M11.92,68.92c.42,1.12,.92,2.02,1.49,2.69,.99,1.16,2.22,1.75,3.69,1.75,.8,0,1.48-.25,2.07-.76,.58-.5,.87-1.21,.87-2.11,0-.81-.29-1.52-.88-2.12-.38-.38-1.19-.96-2.41-1.72l-2.13-1.33c-.64-.41-1.15-.82-1.54-1.23-.71-.79-1.06-1.66-1.06-2.61,0-1.26,.42-2.31,1.26-3.15s1.95-1.26,3.33-1.26c.57,0,1.26,.14,2.06,.42,.8,.28,1.26,.42,1.37,.42,.31,0,.52-.07,.64-.22,.12-.15,.21-.35,.27-.62h.51l.55,5.32h-.6c-.41-1.6-1.06-2.72-1.96-3.36-.9-.63-1.79-.95-2.67-.95-.68,0-1.28,.2-1.79,.6-.51,.4-.76,.96-.76,1.68,0,.64,.19,1.19,.58,1.65,.39,.46,1,.95,1.82,1.45l2.2,1.35c1.37,.85,2.34,1.62,2.91,2.33,.56,.72,.83,1.56,.83,2.54,0,1.31-.49,2.4-1.48,3.28-.99,.88-2.25,1.32-3.79,1.32-.77,0-1.58-.15-2.42-.44-.84-.29-1.32-.44-1.45-.44-.29,0-.49,.09-.59,.27-.1,.18-.17,.37-.2,.57h-.55l-.74-5.32h.57Z"/><path class="cls-37" d="M27.47,59.26c1.54-1.47,3.43-2.21,5.68-2.21s4.15,.74,5.69,2.22c1.67,1.6,2.5,3.74,2.5,6.41s-.86,4.87-2.59,6.47c-1.55,1.43-3.41,2.15-5.6,2.15-2.34,0-4.29-.79-5.83-2.38-1.57-1.62-2.36-3.7-2.36-6.24,0-2.67,.84-4.81,2.51-6.42Zm1.87,12.25c1.03,1.26,2.31,1.89,3.81,1.89s2.74-.61,3.78-1.84c1.05-1.22,1.57-3.18,1.57-5.88s-.53-4.7-1.59-5.91-2.31-1.82-3.76-1.82-2.77,.63-3.81,1.89c-1.04,1.26-1.56,3.2-1.56,5.84s.52,4.57,1.55,5.83Z"/><path class="cls-37" d="M49.7,57.4v.46c-.96,.07-1.58,.23-1.87,.48-.29,.26-.43,.84-.43,1.76v8c0,1.31,.18,2.33,.54,3.06,.67,1.33,1.93,2,3.8,2,2.04,0,3.41-.68,4.11-2.05,.39-.76,.59-1.94,.59-3.54v-6.51c0-1.36-.16-2.21-.49-2.56-.33-.35-.94-.56-1.86-.65v-.46h5.79v.46c-.97,.11-1.6,.34-1.9,.7-.3,.36-.45,1.2-.45,2.51v6.51c0,1.73-.26,3.07-.79,4.04-.98,1.78-2.83,2.67-5.57,2.67s-4.54-.88-5.52-2.64c-.53-.94-.79-2.19-.79-3.74v-7.81c0-.91-.14-1.5-.42-1.75-.28-.26-.89-.42-1.84-.49v-.46h7.09Z"/><path class="cls-37" d="M60.6,73.48c1.03-.11,1.7-.34,1.99-.7,.29-.36,.44-1.2,.44-2.52v-11.01l-.34-.4c-.37-.43-.68-.7-.93-.8-.26-.1-.64-.16-1.15-.18v-.46h4.27l9.65,11.96v-8.31c0-1.37-.2-2.25-.61-2.67-.27-.27-.86-.44-1.78-.52v-.46h5.87v.46c-.95,.1-1.59,.33-1.9,.7s-.48,1.2-.48,2.51v13.16h-.43l-11.06-13.71v9.73c0,1.37,.2,2.26,.6,2.67,.26,.27,.84,.45,1.75,.55v.46h-5.87v-.46Z"/><path class="cls-37" d="M78.78,73.48c.91-.1,1.51-.26,1.78-.49,.28-.23,.42-.82,.42-1.75v-11.12c0-.91-.13-1.5-.4-1.76-.27-.26-.87-.42-1.79-.49v-.46h6.74c2.27,0,4.19,.37,5.76,1.12,2.83,1.34,4.25,3.74,4.25,7.2,0,1.25-.25,2.43-.76,3.55-.51,1.12-1.28,2.07-2.3,2.84-.65,.49-1.33,.86-2.03,1.11-1.28,.47-2.85,.71-4.71,.71h-6.95v-.46Zm5.04-.66c.2,.13,.61,.2,1.24,.2,1.95,0,3.56-.39,4.82-1.16,1.94-1.19,2.91-3.22,2.91-6.1,0-2.57-.8-4.5-2.39-5.79-1.37-1.11-3.18-1.66-5.43-1.66-.56,0-.94,.06-1.14,.18-.2,.12-.3,.39-.3,.81v12.72c0,.41,.1,.68,.3,.81Z"/><path class="cls-37" d="M98.04,68.92c.42,1.12,.92,2.02,1.49,2.69,.99,1.16,2.22,1.75,3.69,1.75,.8,0,1.48-.25,2.07-.76,.58-.5,.87-1.21,.87-2.11,0-.81-.29-1.52-.88-2.12-.38-.38-1.19-.96-2.41-1.72l-2.13-1.33c-.64-.41-1.15-.82-1.54-1.23-.71-.79-1.06-1.66-1.06-2.61,0-1.26,.42-2.31,1.26-3.15s1.95-1.26,3.33-1.26c.57,0,1.26,.14,2.06,.42,.8,.28,1.26,.42,1.37,.42,.31,0,.52-.07,.64-.22s.21-.35,.27-.62h.51l.55,5.32h-.6c-.41-1.6-1.06-2.72-1.96-3.36s-1.79-.95-2.67-.95c-.68,0-1.28,.2-1.79,.6-.51,.4-.76,.96-.76,1.68,0,.64,.19,1.19,.58,1.65,.39,.46,1,.95,1.82,1.45l2.2,1.35c1.38,.85,2.34,1.62,2.91,2.33,.56,.72,.83,1.56,.83,2.54,0,1.31-.5,2.4-1.48,3.28-.99,.88-2.25,1.32-3.79,1.32-.77,0-1.58-.15-2.42-.44-.84-.29-1.32-.44-1.45-.44-.29,0-.49,.09-.59,.27-.1,.18-.17,.37-.2,.57h-.55l-.74-5.32h.57Z"/></g></svg>