<?xml version="1.0" encoding="UTF-8"?><svg id="Lag_5" xmlns="http://www.w3.org/2000/svg" width="105.7mm" height="50.64mm" viewBox="0 0 299.61 143.54"><defs><style>.cls-1{fill:#ef9f37;}.cls-2{fill:#fc7200;}.cls-3{fill:#42170b;}.cls-4{fill:#381209;}</style></defs><g><path class="cls-1" d="M42.04,41.25c-6.53,.62-13.08,1.48-19.49,2.9-5.22,1.16-10.51,2.52-15.36,4.81-2.33,1.1-6,2.73-6.99,5.37s1.98,4.71,4.12,5.73c5.12,2.42,11.09,3.27,16.67,3.9,6.76,.76,13.59,1,20.39,1.04,12.51,.07,25.03-.84,37.41-2.58,22.11-3.1,43.62-8.9,65.29-14.15,1.19-.29,2.39-.58,3.58-.86,.59-.14,1.19-.28,1.78-.42,.24-.06,.48-.11,.71-.17-1.84,.43-.36,.08,.04,0,2.41-.55,4.83-1.08,7.25-1.58s4.68-.94,7.03-1.36c1.17-.21,2.33-.41,3.5-.6,.54-.09,1.23-.1,1.75-.28-1.08,.37-.81,.12-.38,.06,.41-.06,.82-.12,1.22-.18,2.39-.34,4.78-.63,7.18-.87,1.17-.12,2.34-.22,3.51-.31,.53-.04,1.05-.08,1.58-.11,.29-.02,.59-.04,.88-.06-1.22,.08-.11,0,.17,0,2.47-.13,4.94-.19,7.41-.18,1.12,0,2.25,.02,3.37,.04,.54,.01,1.08,.03,1.62,.05,.36,.02,.73,.04,1.09,.06,.8,.04-.39-.04,.49,.03,13.08,1.15,25.33,6.64,37.53,11.14,11.29,4.17,22.58,8.33,33.77,12.76,1.75,.69,3.5,1.4,5.24,2.12,2.17,.9,5.33-.08,7.42-.84,1.12-.41,2.37-.84,3.27-1.63,.32-.29,1.01-1.03,.27-1.34-9.45-3.94-19.08-7.47-28.67-11.05-6.53-2.43-13.07-4.83-19.61-7.25s-12.6-4.75-19.13-6.39c-10.23-2.57-20.95-2.39-31.39-1.59-9.74,.75-19.41,2.39-28.96,4.43-10.07,2.15-20.05,4.7-30.05,7.2-5.03,1.26-10.06,2.49-15.11,3.67-.4,.09-1.01,.06,.4-.09-.32,.03-.65,.15-.97,.22-.58,.13-1.17,.26-1.75,.39-1.44,.32-2.87,.64-4.31,.94-2.59,.55-5.19,1.08-7.79,1.58s-5.45,1.02-8.19,1.47c-1.32,.22-2.64,.47-3.97,.63,1.27-.15,.27-.04-.05,0-.35,.05-.71,.1-1.06,.15-.71,.1-1.42,.2-2.13,.3-5.85,.79-11.72,1.4-17.6,1.79-.45,.03-.91,.06-1.36,.09,.2-.01,.82-.04-.13,0-.77,.04-1.53,.08-2.3,.12-1.55,.07-3.1,.13-4.65,.17-3.18,.09-6.36,.11-9.54,.06-6.32-.08-12.53-.32-18.76-1.16-4.83-.65-10.39-1.36-14.58-4.05-.95-.61-1.94-1.38-2.14-2.57-.02-.15,0-.3-.03-.44-.06-.45-.07,.09,0-.08,.16-.41,.38-.72,.61-1.1,.33-.54-.42,.31,.03-.03,.18-.14,.34-.31,.52-.45,.13-.1,.27-.19,.4-.3,.3-.25,.22,.13-.39,.25,.26-.05,.67-.41,.91-.55,.15-.08,.31-.16,.46-.25,.61-.35-.51,.26-.52,.26,.34-.06,.74-.35,1.06-.49,.19-.08,.38-.16,.57-.24,.61-.26,.53,.11-.5,.19,.45-.03,1.01-.37,1.44-.52s.85-.27,1.27-.41c-2.04,.69-.19,.07,.31-.07,.55-.15,1.09-.3,1.64-.44,.23-.06,.46-.11,.69-.17,.23-.06,.47-.11,.7-.17-.9,.2-1.11,.25-.65,.15,2.63-.57,5.28-1.07,7.94-1.47-1.34,.2,.21-.02,.4-.05,.31-.04,.62-.09,.94-.13,.8-.11,1.61-.21,2.41-.31,1.71-.2,3.42-.38,5.13-.55,2.51-.24,5.84-.96,7.78-2.68s-1.77-1.63-2.64-1.55h0Z"/><g><path class="cls-4" d="M46.08,41.71h1.01c.56,5.16,1.46,8.9,2.71,11.25,1.25,2.34,2.68,3.51,4.29,3.51s2.68-.8,3.34-2.41c.66-1.61,.99-3.3,.99-5.07,0-2.07-.34-3.75-1.03-5.06-.46-.85-1.38-1.97-2.77-3.34l-2.24-2.23c-2.22-2.2-3.79-4.38-4.71-6.54-.91-2.16-1.37-4.82-1.37-7.99,0-3.37,.61-6.52,1.82-9.44,1.21-2.92,3.07-4.38,5.57-4.38,1.27,0,2.5,.38,3.69,1.15s1.87,1.15,2.04,1.15c.38,0,.65-.22,.79-.66,.15-.44,.26-1.02,.35-1.74h1.05v15.03h-.98c-.46-3.48-1.27-6.48-2.43-9s-2.57-3.77-4.22-3.77c-1.16,0-2.09,.63-2.76,1.91s-1.02,2.82-1.02,4.64c0,2.18,.32,3.81,.95,4.89,.62,1.1,2.02,2.72,4.19,4.86l2.6,2.56c1.16,1.15,2.08,2.42,2.77,3.81,1.29,2.6,1.93,5.77,1.93,9.5,0,3.48-.69,6.76-2.07,9.85-1.38,3.09-3.59,4.63-6.63,4.63-.7,0-1.41-.13-2.12-.39-.72-.26-1.42-.66-2.12-1.2l-.68-.51c-.16-.09-.31-.16-.46-.22-.15-.06-.27-.08-.37-.08-.36,0-.61,.21-.74,.62-.14,.42-.25,1-.35,1.77h-1.01v-17.08Z"/><path class="cls-4" d="M86.91,16.88c2.42,4.6,3.63,10.54,3.63,17.79s-1.21,13.19-3.63,17.79c-2.36,4.49-5.31,6.74-8.85,6.74-3.76,0-6.82-2.46-9.19-7.38-2.21-4.63-3.32-10.22-3.32-16.78,0-7.23,1.16-13.17,3.47-17.82,2.34-4.72,5.35-7.08,9.04-7.08s6.5,2.25,8.85,6.74Zm-3.42,30.8c.53-3.32,.79-7.66,.79-13.01,0-7.34-.56-12.88-1.68-16.61-1.12-3.73-2.64-5.59-4.55-5.59-2.66,0-4.48,3.11-5.47,9.33-.52,3.3-.77,7.59-.77,12.87s.26,9.7,.79,13.01c.98,6.13,2.79,9.2,5.45,9.2s4.45-3.07,5.44-9.2Z"/><path class="cls-4" d="M104.24,11.19v1.75c-1.36,.09-2.27,.5-2.73,1.24-.46,.74-.69,2.42-.69,5.06v23.12c0,3.51,.21,6.22,.64,8.13,.77,3.56,2.24,5.33,4.42,5.33,2.7,0,4.53-1.97,5.48-5.9,.53-2.16,.79-5.18,.79-9.07V19.75c0-2.47-.23-4.17-.7-5.1-.46-.93-1.37-1.5-2.72-1.7v-1.75h7.73v1.75c-1.12,.43-1.86,.95-2.23,1.57s-.54,2.04-.54,4.26v22.07c0,5.86-.72,10.39-2.17,13.58-1.44,3.19-3.71,4.79-6.8,4.79-4.04,0-6.81-2.37-8.3-7.12-.79-2.52-1.19-5.77-1.19-9.75V19.24c0-2.59-.17-4.22-.52-4.89-.35-.67-1.14-1.14-2.36-1.41v-1.75h11.89Z"/><path class="cls-4" d="M118.13,11.19h21.19l.03,13.92h-1.01c-.33-4.98-1.28-8.35-2.85-10.1-.88-.97-2.2-1.5-3.95-1.59V49.76c0,2.54,.23,4.23,.68,5.06s1.39,1.25,2.83,1.25v1.75h-12.54v-1.75c1.38,0,2.29-.42,2.74-1.26,.45-.84,.68-2.52,.68-5.04V13.41c-1.72,.09-3.04,.62-3.95,1.59-1.68,1.8-2.64,5.17-2.85,10.1h-1.01l.03-13.92Z"/><path class="cls-4" d="M141.31,56.07c.94-.09,1.6-.35,1.99-.78,.65-.72,.98-2.08,.98-4.08V17.79c0-1.94-.29-3.26-.88-3.95-.35-.4-1.05-.7-2.1-.9v-1.75h11.91v1.75c-1.03,.11-1.75,.38-2.15,.8-.66,.71-1,2.06-1,4.05v14.32h8.39v-14.32c0-1.99-.32-3.32-.95-4.02-.39-.42-1.12-.7-2.18-.84v-1.75h11.98v1.75c-1.03,.16-1.73,.45-2.11,.87-.63,.69-.95,2.02-.95,3.98V51.21c0,2.02,.35,3.39,1.05,4.11,.4,.43,1.07,.67,2.01,.74v1.75h-11.98v-1.75c1.01-.07,1.72-.34,2.15-.81,.65-.72,.98-2.07,.98-4.04v-15.9h-8.39v15.9c0,2.04,.36,3.42,1.07,4.14,.41,.4,1.11,.64,2.08,.71v1.75h-11.91v-1.75Z"/><path class="cls-4" d="M168.61,57.82v-1.75c1.01-.07,1.72-.34,2.15-.81,.65-.72,.98-2.07,.98-4.04V17.79c0-2.01-.34-3.36-1.01-4.05-.39-.42-1.09-.69-2.11-.8v-1.75h20.28v13.92h-.86c-.45-4.45-1.21-7.49-2.28-9.13-1.07-1.64-3.02-2.46-5.85-2.46-1.08,0-1.76,.22-2.05,.66-.29,.44-.44,1.31-.44,2.61v15.97c2,.05,3.36-.67,4.07-2.14,.71-1.47,1.25-4.16,1.63-8.07h.89v23.32h-.89c-.25-3.93-.76-6.7-1.54-8.31-.77-1.61-2.16-2.41-4.17-2.41v16.71c0,1.46,.19,2.45,.58,2.98,.38,.53,1.17,.79,2.36,.79,2.25,0,4.08-.85,5.5-2.56,1.42-1.71,2.68-4.91,3.78-9.6h.98l-1.43,14.35h-20.57Z"/><path class="cls-4" d="M192.08,56.07c1.19-.11,2-.55,2.44-1.31,.44-.76,.65-2.43,.65-4.99V19.24c0-2.66-.26-4.39-.77-5.19-.34-.54-1.12-.91-2.32-1.11v-1.75h11.32c2.35,0,4.25,.48,5.7,1.45,2.82,1.95,4.23,5.47,4.23,10.55,0,3.75-.74,6.71-2.21,8.86-1.13,1.62-2.32,2.65-3.58,3.1l7.48,19.64c.19,.54,.4,.89,.62,1.06,.22,.17,.49,.28,.81,.32v1.65h-7.34l-8.21-21.56h-.01v13.51c0,2.43,.21,4.06,.62,4.9,.41,.84,1.24,1.31,2.47,1.4v1.75h-11.89v-1.75Zm13.74-23.94c.99-1.2,1.49-3.98,1.49-8.34,0-2.67-.19-4.78-.57-6.33-.65-2.63-1.84-3.94-3.57-3.94-.94,0-1.55,.23-1.85,.69-.29,.46-.44,1.22-.44,2.27v17.55c2.3-.07,3.95-.7,4.94-1.9Z"/><path class="cls-4" d="M217.5,56.07c1.31-.07,2.15-.56,2.53-1.47s.57-2.25,.57-4.03V17.89c-1.08-2.36-1.74-3.75-1.99-4.16-.25-.42-.6-.68-1.03-.79v-1.75h7.46l12.1,28.83h.17V19.75c0-2.34-.22-4-.65-5-.43-1-1.3-1.6-2.6-1.8v-1.75h7.56v1.75c-1.1,.36-1.84,.84-2.21,1.44s-.56,1.95-.56,4.05V59.1h-.98l-15.48-36.89h-.24v27.06c0,2.12,.15,3.62,.45,4.5,.47,1.42,1.43,2.19,2.89,2.3v1.75h-7.97v-1.75Z"/></g><g><path class="cls-2" d="M95.54,83.18c.64,1.99,1.38,3.57,2.24,4.75,1.49,2.06,3.34,3.09,5.55,3.09,1.2,0,2.23-.45,3.11-1.34s1.31-2.14,1.31-3.74c0-1.44-.44-2.69-1.32-3.76-.57-.68-1.78-1.69-3.63-3.04l-3.21-2.35c-.96-.72-1.73-1.45-2.31-2.18-1.06-1.4-1.6-2.94-1.6-4.62,0-2.23,.63-4.09,1.89-5.57,1.26-1.48,2.93-2.22,5.01-2.22,.86,0,1.89,.25,3.09,.75,1.21,.5,1.89,.75,2.06,.75,.46,0,.79-.13,.96-.39,.18-.26,.31-.63,.41-1.1h.77l.83,9.42h-.9c-.61-2.84-1.59-4.82-2.95-5.94-1.35-1.12-2.69-1.68-4.01-1.68-1.03,0-1.92,.36-2.69,1.07s-1.15,1.7-1.15,2.97c0,1.14,.29,2.11,.88,2.92,.59,.82,1.5,1.68,2.73,2.57l3.3,2.4c2.07,1.5,3.52,2.87,4.37,4.12,.84,1.27,1.25,2.76,1.25,4.49,0,2.32-.74,4.25-2.23,5.81-1.49,1.56-3.39,2.33-5.7,2.33-1.16,0-2.38-.26-3.64-.78-1.27-.52-1.99-.78-2.17-.78-.44,0-.74,.16-.89,.47-.15,.32-.25,.66-.3,1.02h-.83l-1.12-9.42h.86Z"/><path class="cls-2" d="M118.92,66.1c2.31-2.61,5.16-3.91,8.53-3.91s6.24,1.31,8.55,3.93c2.51,2.84,3.76,6.62,3.76,11.34s-1.3,8.61-3.89,11.45c-2.32,2.53-5.13,3.8-8.42,3.8-3.52,0-6.45-1.4-8.77-4.21-2.36-2.87-3.54-6.54-3.54-11.04,0-4.72,1.26-8.51,3.78-11.36Zm2.81,21.67c1.56,2.22,3.47,3.34,5.73,3.34s4.11-1.08,5.69-3.25,2.36-5.63,2.36-10.4-.8-8.31-2.39-10.45c-1.59-2.14-3.48-3.22-5.66-3.22s-4.16,1.11-5.72,3.34-2.34,5.67-2.34,10.33,.78,8.09,2.33,10.31Z"/><path class="cls-2" d="M152.33,62.82v.82c-1.44,.12-2.38,.4-2.81,.85-.43,.45-.64,1.49-.64,3.12v14.15c0,2.32,.27,4.12,.81,5.42,1,2.36,2.91,3.54,5.71,3.54,3.07,0,5.13-1.21,6.18-3.63,.59-1.35,.88-3.44,.88-6.26v-11.51c0-2.4-.25-3.91-.73-4.53-.49-.61-1.42-1-2.79-1.16v-.82h8.7v.82c-1.46,.19-2.41,.6-2.85,1.24-.45,.64-.67,2.12-.67,4.44v11.51c0,3.05-.4,5.44-1.19,7.15-1.47,3.15-4.26,4.73-8.37,4.73s-6.83-1.55-8.29-4.67c-.8-1.67-1.19-3.87-1.19-6.61v-13.82c0-1.61-.21-2.65-.63-3.1-.42-.45-1.34-.75-2.76-.88v-.82h10.66Z"/><path class="cls-2" d="M168.72,91.26c1.55-.19,2.55-.6,2.99-1.24s.66-2.13,.66-4.46v-19.49l-.51-.71c-.55-.76-1.02-1.23-1.4-1.41s-.96-.28-1.73-.31v-.82h6.41l14.51,21.16v-14.7c0-2.42-.31-3.99-.92-4.72-.4-.47-1.3-.78-2.68-.92v-.82h8.83v.82c-1.43,.17-2.39,.58-2.86,1.23-.48,.65-.72,2.13-.72,4.45v23.28h-.64l-16.63-24.26v17.22c0,2.42,.3,3.99,.9,4.73,.39,.48,1.27,.8,2.62,.97v.82h-8.83v-.82Z"/><path class="cls-2" d="M196.04,91.26c1.37-.17,2.26-.46,2.68-.87,.42-.41,.62-1.44,.62-3.1v-19.68c0-1.61-.2-2.65-.61-3.11-.4-.46-1.3-.75-2.7-.86v-.82h10.13c3.41,0,6.3,.66,8.66,1.99,4.26,2.38,6.39,6.62,6.39,12.74,0,2.2-.38,4.3-1.15,6.29s-1.92,3.67-3.46,5.03c-.98,.86-1.99,1.52-3.05,1.97-1.92,.84-4.28,1.25-7.08,1.25h-10.44v-.82Zm7.57-1.17c.3,.23,.92,.35,1.86,.35,2.94,0,5.35-.68,7.25-2.05,2.91-2.1,4.37-5.7,4.37-10.79,0-4.54-1.2-7.96-3.6-10.25-2.06-1.96-4.78-2.94-8.17-2.94-.84,0-1.42,.11-1.72,.32-.3,.22-.45,.69-.45,1.43v22.5c0,.72,.15,1.2,.45,1.43Z"/><path class="cls-2" d="M225,83.18c.64,1.99,1.38,3.57,2.24,4.75,1.49,2.06,3.34,3.09,5.55,3.09,1.2,0,2.23-.45,3.11-1.34s1.31-2.14,1.31-3.74c0-1.44-.44-2.69-1.32-3.76-.57-.68-1.78-1.69-3.63-3.04l-3.21-2.35c-.96-.72-1.74-1.45-2.31-2.18-1.06-1.4-1.6-2.94-1.6-4.62,0-2.23,.63-4.09,1.89-5.57,1.26-1.48,2.93-2.22,5.01-2.22,.86,0,1.89,.25,3.09,.75,1.2,.5,1.89,.75,2.06,.75,.46,0,.79-.13,.96-.39,.18-.26,.32-.63,.41-1.1h.77l.83,9.42h-.9c-.61-2.84-1.59-4.82-2.95-5.94s-2.69-1.68-4.01-1.68c-1.03,0-1.92,.36-2.69,1.07s-1.15,1.7-1.15,2.97c0,1.14,.29,2.11,.88,2.92,.59,.82,1.5,1.68,2.73,2.57l3.3,2.4c2.07,1.5,3.52,2.87,4.37,4.12,.83,1.27,1.25,2.76,1.25,4.49,0,2.32-.74,4.25-2.23,5.81-1.49,1.56-3.39,2.33-5.7,2.33-1.16,0-2.38-.26-3.64-.78-1.27-.52-1.99-.78-2.17-.78-.44,0-.74,.16-.89,.47-.15,.32-.25,.66-.3,1.02h-.83l-1.12-9.42h.86Z"/></g></g><g><path class="cls-3" d="M237.69,115.92c-.17,5.7-.44,12.38,3.09,17.24,2.24,3.08,6.32,5.47,10.07,3.61,2.27-1.12,3.5-3.47,5.4-5.05,2.25-1.87,5.33-2.08,7.98-1s4.28,3.17,5.49,5.67c1.12,2.32,2.16,4.58,4.45,5.95,3.17,1.88,7.44,1.51,10.24-.88,3.61-3.09,4.33-8.72,3.1-13.09-1.46-5.15-5.96-8.24-8.86-12.48-3.07-4.5-3.29-10.43-.33-15.07,1.76-2.76,4.65-4.68,7.88-5.23,1.58-.27,3.11-.17,4.69,.06,1.12,.17,2.25,.35,3.37,.15,2.14-.37,3.2-1.99,3.97-3.9,.95-2.37,1.45-4.96,1.37-7.51-.15-5.1-3.06-9.74-8.29-10.76-4.89-.95-9.49,1.57-13.2,4.51-2.4,1.9-4.56,4.3-7.38,5.59-3.15,1.44-6.72,.46-8.35-2.64-2.25-4.3-.87-9.84-4.01-13.78-2.47-3.08-7.06-3.95-10.34-1.65-4.09,2.88-4.64,8.59-2.97,12.94,.99,2.58,2.5,4.94,3.34,7.58s.79,5.45-.46,7.98c-.56,1.13-1.32,2.16-2.28,2.98-1.75,1.48-3.77,1.7-5.97,1.36-2.6-.41-5.05-1.08-7.71-.76-4.78,.58-8.7,3.88-9.32,8.8-.67,5.29,3.32,9.18,8.2,10.31,2.6,.6,5.28,.48,7.85-.23,.42-.12,.36-.36-.06-.24-5.39,1.5-12.95-.18-14.92-6.12-.82-2.47-.4-5.25,.84-7.51,1.55-2.82,4.41-4.46,7.58-4.74,4.59-.4,9.4,2.56,13.59-.45,3.79-2.72,4.72-7.71,3.26-11.93-1.69-4.9-5.19-9.1-3.81-14.58,.62-2.48,2.18-5.07,4.66-6.03s5.1-.04,6.92,1.58c3.72,3.31,2.87,8.82,4.26,13.16,.63,1.96,1.84,3.73,3.81,4.51,1.75,.7,3.77,.55,5.52-.09,2.25-.82,4.12-2.41,5.91-3.96,2.26-1.96,4.57-3.91,7.29-5.2,5.24-2.49,11.71-1.1,14.22,4.48,1.01,2.24,1.26,4.78,1.03,7.2s-.89,5.26-2.3,7.32c-1.87,2.73-6.17,.88-8.97,1.12-1.97,.17-3.9,.74-5.62,1.72-4.08,2.32-6.4,6.79-6.45,11.43-.06,5.11,3.01,8.74,6.25,12.32s5.96,7.76,5.58,13-3.81,10.46-9.58,9.52c-2.21-.36-4.18-1.63-5.45-3.46-1.5-2.16-2.12-4.82-3.92-6.79-2.52-2.75-6.55-3.86-10.09-2.63-1.91,.66-3.26,1.98-4.57,3.47-.96,1.08-1.94,2.28-3.26,2.94s-2.88,.54-4.25,.03c-5.11-1.91-7.11-7.61-7.63-12.58-.29-2.78-.22-5.59-.14-8.38,0-.12-.72-.03-.72,.19h0Z"/><path class="cls-3" d="M238.44,115.64c-.16,5.4-.42,11.59,2.66,16.31,2.09,3.19,6.27,5.93,10.09,4.01,2.35-1.18,3.54-3.73,5.63-5.22s4.84-1.64,7.19-.72c2.52,.98,4.16,2.94,5.32,5.32,1.05,2.17,1.98,4.34,4.04,5.75,3.16,2.15,7.66,1.83,10.48-.77,3.32-3.07,4-8.35,2.84-12.53-1.35-4.88-5.53-7.88-8.36-11.84-3.23-4.52-3.52-10.64-.29-15.27,1.73-2.49,4.46-4.17,7.44-4.68,1.45-.25,2.88-.18,4.33,.03,1.18,.17,2.39,.4,3.59,.15,2.12-.44,3.09-2.28,3.8-4.16,.88-2.32,1.3-4.85,1.17-7.33-.26-4.86-3.16-9.17-8.13-10.11s-9.47,1.76-13.14,4.77c-2.34,1.92-4.58,4.43-7.54,5.37s-5.82-.17-7.22-2.87c-2.16-4.17-.81-9.57-3.89-13.37-2.41-2.97-6.87-3.86-10.03-1.56-3.96,2.87-4.46,8.4-2.82,12.66,.99,2.57,2.51,4.92,3.29,7.58s.58,5.39-.75,7.8c-1.66,3.01-4.44,4.31-7.82,3.78-2.63-.41-5.12-1.1-7.8-.69-4.55,.68-8.18,4.04-8.67,8.72-.51,4.92,3.09,8.6,7.63,9.79,2.62,.68,5.35,.61,7.95-.12,.43-.12,.34-.5-.1-.37-5.2,1.45-12.51-.11-14.4-5.86-1.76-5.34,2.08-10.93,7.49-11.74,4.64-.69,9.63,2.52,13.83-.54,3.54-2.58,4.55-7.3,3.24-11.33-1.55-4.78-5.06-8.85-3.83-14.19,.55-2.39,1.98-4.87,4.3-5.91s5.04-.29,6.88,1.32c3.59,3.13,2.86,8.38,4.1,12.54,.56,1.88,1.62,3.65,3.45,4.52,1.69,.8,3.68,.75,5.42,.17,2.14-.72,3.93-2.19,5.62-3.64,2.16-1.87,4.33-3.76,6.89-5.08,4.89-2.51,11.19-1.84,13.97,3.4,2.21,4.17,1.77,10.53-.82,14.47-1.86,2.84-5.53,1.09-8.32,1.22-2,.09-3.99,.63-5.75,1.6-4,2.22-6.31,6.55-6.41,11.08-.11,4.82,2.62,8.36,5.7,11.75,1.63,1.79,3.29,3.61,4.37,5.8s1.51,4.56,1.38,6.93c-.26,4.72-3.19,9.8-8.52,9.51-2.31-.13-4.46-1.3-5.84-3.15-1.5-2-2.07-4.54-3.67-6.48-2.33-2.83-6.27-4.14-9.8-3.04-1.89,.59-3.26,1.84-4.55,3.3-1.8,2.04-3.69,4.01-6.67,3.3-5.19-1.24-7.44-6.99-8.04-11.72-.37-2.9-.29-5.83-.21-8.74,0-.31-.72-.16-.73,.09h0Z"/><path class="cls-3" d="M239.18,115.4c-.16,5.24-.41,11.29,2.6,15.87,2.06,3.13,6.25,5.84,9.95,3.77,2.11-1.18,3.23-3.48,5.15-4.88,2.03-1.49,4.7-1.68,7.02-.8,2.52,.96,4.1,2.94,5.23,5.3,.99,2.06,1.91,4.13,3.88,5.44,3.08,2.06,7.37,1.75,10.09-.77,3.16-2.94,3.83-7.94,2.8-11.96-1.23-4.78-5.24-7.73-8.03-11.56-3.23-4.44-3.57-10.58-.22-15.11,1.74-2.36,4.4-3.91,7.29-4.35,1.22-.18,2.44-.15,3.66,.02s2.5,.45,3.73,.19c2.23-.47,3.18-2.58,3.85-4.55,.73-2.13,1.09-4.4,.96-6.66-.26-4.63-2.94-8.76-7.65-9.77-5.03-1.09-9.66,1.82-13.34,4.93-2.19,1.85-4.39,4.22-7.26,4.97s-5.61-.58-6.81-3.31c-1.78-4.08-.64-9.26-3.78-12.78-2.55-2.85-6.99-3.44-9.94-.87-3.56,3.1-3.76,8.28-2.08,12.38,.97,2.36,2.34,4.56,3.04,7.03s.49,5.23-.85,7.54c-1.6,2.76-4.18,3.98-7.32,3.53-2.66-.38-5.14-1.11-7.85-.67-4.44,.72-7.88,4.15-8.25,8.7s3.23,8.27,7.63,9.35c2.48,.61,5.03,.53,7.48-.16,.44-.12,.32-.6-.13-.48-5.02,1.4-12.08-.06-13.89-5.63-1.68-5.13,1.98-10.44,7.14-11.29,4.44-.73,9.24,2.36,13.29-.42,3.46-2.38,4.58-6.97,3.42-10.86-1.4-4.69-4.92-8.61-3.84-13.8,.48-2.29,1.78-4.69,3.94-5.79s4.53-.62,6.37,.69c3.94,2.81,3.27,8.14,4.41,12.29,.49,1.77,1.39,3.5,3.03,4.45s3.68,1.01,5.46,.46c2.17-.67,3.96-2.17,5.65-3.63,2.08-1.8,4.17-3.63,6.64-4.9,4.63-2.38,10.56-1.86,13.34,3.01,2.32,4.05,1.85,10.34-.68,14.22-1.77,2.71-5.2,1.08-7.82,1.15-2.08,.06-4.16,.62-5.96,1.67-3.73,2.17-5.89,6.28-6.02,10.54-.14,4.75,2.5,8.21,5.53,11.56,1.49,1.65,3,3.32,4.05,5.3,1.12,2.12,1.6,4.57,1.47,6.96-.25,4.51-3,9.35-8.07,9.2-2.22-.06-4.32-1.14-5.68-2.88-1.5-1.92-2.05-4.41-3.57-6.32-2.2-2.77-6.02-4.13-9.45-3.11-1.87,.56-3.22,1.78-4.49,3.22-1.68,1.89-3.42,3.82-6.2,3.3-5.25-.98-7.48-6.9-8.04-11.54-.33-2.74-.25-5.52-.17-8.28,.01-.37-.72-.25-.73,.06h0Z"/><path class="cls-3" d="M239.93,115.16c-.16,5.09-.41,10.97,2.53,15.41,1.93,2.91,5.79,5.51,9.32,3.77,2.06-1.02,3.17-3.15,4.88-4.59,1.87-1.57,4.42-1.95,6.72-1.21s4.07,2.51,5.18,4.69,1.87,4.32,3.87,5.74c2.96,2.1,7.2,1.86,9.87-.61,3.09-2.86,3.77-7.77,2.74-11.69-1.19-4.57-5-7.4-7.68-11.05-3.16-4.31-3.51-10.24-.27-14.66,1.6-2.18,4.02-3.65,6.67-4.15,1.3-.24,2.6-.23,3.91-.05,1.16,.16,2.35,.42,3.51,.2,2.1-.39,3.04-2.27,3.71-4.12,.8-2.2,1.19-4.57,1.03-6.9-.29-4.34-2.77-8.23-7.16-9.29-4.69-1.13-9.1,1.42-12.6,4.3-2.24,1.84-4.38,4.27-7.22,5.15s-5.59-.31-6.81-3c-1.77-3.93-.63-8.94-3.62-12.38-2.37-2.73-6.59-3.45-9.48-1.11-3.39,2.76-3.9,7.66-2.47,11.55,.88,2.4,2.28,4.57,3.05,7.01s.69,5.19-.61,7.54c-1.45,2.64-3.88,3.98-6.89,3.61-2.59-.32-4.99-1.1-7.63-.72-4.3,.62-7.66,3.81-8.16,8.18-.53,4.66,2.86,8.19,7.15,9.33,2.45,.65,4.99,.57,7.42-.11,.45-.12,.31-.64-.14-.51-4.89,1.37-11.81-.08-13.45-5.6-1.53-5.17,2.34-10.2,7.49-10.79,4.33-.5,8.92,2.44,12.75-.69,3.15-2.57,3.95-6.89,2.72-10.63-1.45-4.39-4.62-8.14-3.53-13.04,.51-2.28,1.85-4.61,4.06-5.6,2.09-.94,4.58-.3,6.28,1.12,3.43,2.88,2.73,7.87,3.88,11.77s4.47,5.76,8.29,4.49c2.15-.71,3.9-2.24,5.58-3.7,2.04-1.78,4.12-3.55,6.58-4.73,4.64-2.22,10.42-1.24,12.76,3.73,.99,2.1,1.21,4.48,.98,6.76s-.82,5.16-2.36,6.88c-1.75,1.95-5.11,.48-7.39,.58-2,.09-3.98,.68-5.7,1.72-3.52,2.15-5.53,6.1-5.64,10.18-.12,4.5,2.35,7.83,5.23,11.02,3.13,3.46,5.69,7.04,5.43,11.93-.24,4.47-3.04,9.25-8.07,8.91-2.15-.14-4.13-1.27-5.38-3.01-1.38-1.92-1.92-4.33-3.49-6.14-2.25-2.59-6-3.79-9.28-2.62-1.71,.61-2.92,1.81-4.09,3.15-1.6,1.82-3.31,3.56-5.94,3.03-5-1.01-7.12-6.64-7.65-11.1-.32-2.67-.24-5.36-.16-8.04,.01-.39-.72-.29-.74,.05h0Z"/><path class="cls-3" d="M240.69,115.01c-.16,5.05-.42,11.02,2.77,15.29,2.01,2.69,5.58,4.65,8.83,2.94,1.93-1.02,2.99-3.04,4.63-4.41,2.1-1.76,5.03-1.83,7.42-.62,2.07,1.04,3.31,2.81,4.27,4.85s1.9,3.99,3.93,5.16c2.75,1.57,6.41,1.21,8.82-.83,3.14-2.66,3.82-7.5,2.86-11.31-1.16-4.58-5.06-7.33-7.64-11.04-2.8-4.03-3.02-9.38-.31-13.55,1.66-2.55,4.43-4.26,7.47-4.58,2.23-.23,4.54,.78,6.72,.18,1.81-.49,2.63-2.12,3.23-3.76,.8-2.16,1.19-4.51,1.03-6.81-.31-4.46-3.11-8.3-7.7-8.93-4.08-.56-7.88,1.56-10.96,4.02-2.25,1.8-4.32,4.24-7.1,5.24s-5.59-.25-6.8-2.9c-1.76-3.86-.59-8.83-3.64-12.14-2.27-2.45-6.12-2.95-8.84-.95-3.48,2.56-3.97,7.48-2.56,11.27,1.68,4.51,4.9,8.67,2.56,13.62-.48,1.01-1.14,1.95-1.99,2.68-1.62,1.42-3.54,1.52-5.59,1.17s-4.19-.86-6.39-.57c-4.18,.54-7.56,3.45-8.12,7.73-.62,4.7,2.91,8.17,7.27,9.12,2.24,.49,4.53,.36,6.74-.26,.42-.12,.36-.36-.06-.24-4.87,1.36-11.75-.32-13.08-5.9-.5-2.1-.06-4.38,1.01-6.23,1.56-2.7,4.45-4.03,7.51-4.02,3.86,.01,7.65,2.12,11.09-.6,3.15-2.5,3.84-6.78,2.56-10.43-1.49-4.25-4.45-7.93-3.25-12.68,.55-2.18,1.91-4.49,4.1-5.33s4.59,.1,6.14,1.63c3.06,3.01,2.23,7.79,3.52,11.55,1.19,3.47,4.5,4.88,7.91,3.71,1.95-.67,3.57-2,5.1-3.33,1.96-1.71,3.92-3.45,6.26-4.64,4.58-2.35,10.36-1.35,12.63,3.64,.89,1.95,1.12,4.15,.94,6.27-.19,2.22-.78,4.9-2.14,6.72-1.63,2.19-5.25,.65-7.6,.85-1.71,.15-3.38,.64-4.88,1.48-3.57,1.99-5.62,5.86-5.75,9.9-.14,4.41,2.35,7.65,5.15,10.76,2.96,3.28,5.3,6.69,5.13,11.29s-3.14,9.68-8.37,8.77c-2.05-.36-3.78-1.6-4.88-3.35s-1.68-3.89-3.08-5.51c-2.11-2.43-5.54-3.44-8.62-2.5-1.58,.48-2.8,1.46-3.9,2.68-1.85,2.06-3.66,4.23-6.74,3.17-4.55-1.56-6.33-6.68-6.78-11.02-.26-2.47-.19-4.96-.11-7.44,0-.12-.72-.02-.72,.19h0Z"/><path class="cls-3" d="M241.44,114.78c-.15,4.85-.41,10.54,2.59,14.67,1.89,2.6,5.29,4.54,8.45,3,1.83-.9,2.88-2.75,4.33-4.09,1.99-1.84,4.79-2.07,7.2-.94,2.15,1.01,3.39,2.84,4.37,4.92,.89,1.89,1.78,3.68,3.64,4.78,2.6,1.54,6.11,1.23,8.45-.67,3.03-2.45,3.78-6.98,2.99-10.62-.98-4.51-4.67-7.21-7.24-10.77-2.81-3.9-3.19-9.03-.62-13.18,1.56-2.53,4.24-4.27,7.21-4.6,2.15-.24,4.36,.71,6.47,.18,1.81-.46,2.63-2.03,3.23-3.67,.75-2.03,1.12-4.23,1-6.39-.24-4.24-2.77-8.01-7.14-8.74-3.94-.65-7.64,1.32-10.64,3.68-2.18,1.72-4.14,4.05-6.76,5.12s-5.54,.06-6.78-2.58c-1.73-3.68-.59-8.42-3.4-11.66-2.18-2.51-6.01-3.05-8.7-1.05-3.36,2.51-3.79,7.26-2.42,10.94,1.66,4.42,4.77,8.52,2.31,13.33-.47,.91-1.1,1.75-1.88,2.42-1.77,1.5-3.84,1.33-5.98,.91s-4.08-.7-6.18-.29c-3.83,.76-6.74,3.66-7.14,7.61-.45,4.44,2.94,7.64,7.02,8.54,2.16,.47,4.37,.34,6.5-.26,.42-.12,.37-.35-.06-.23-4.53,1.27-10.87-.17-12.45-5.2s2.19-10.02,7.26-10.37c3.9-.27,7.86,2.15,11.37-.53,3.09-2.35,3.83-6.52,2.62-10.05-1.41-4.12-4.32-7.69-3.17-12.3,.5-2.02,1.69-4.12,3.64-5.04,2.16-1.02,4.77-.12,6.34,1.55,2.85,3.03,1.98,7.61,3.34,11.25,1.23,3.29,4.49,4.46,7.69,3.29,1.85-.68,3.4-1.97,4.86-3.25,1.92-1.68,3.86-3.39,6.16-4.53,4.54-2.24,10.08-.92,12.07,4,.78,1.92,.92,4.06,.7,6.1-.12,1.06-.35,2.12-.67,3.14-.34,1.08-.81,2.68-1.73,3.41-1.37,1.08-2.97,.57-4.51,.39-.95-.11-1.91-.11-2.86,0-1.57,.2-3.11,.7-4.48,1.51-3.4,2.01-5.29,5.8-5.34,9.69-.05,4.32,2.51,7.39,5.23,10.43,2.84,3.16,4.92,6.53,4.64,10.93s-3.23,9.07-8.19,8.11c-1.91-.37-3.53-1.59-4.54-3.23-1.13-1.84-1.69-3.99-3.22-5.58-2.1-2.2-5.38-3.02-8.26-2.04-1.51,.51-2.63,1.48-3.67,2.66-.65,.74-1.27,1.53-2.03,2.16-1.38,1.16-3.06,1.3-4.68,.62-4.21-1.75-5.76-6.52-6.17-10.69-.22-2.32-.16-4.66-.09-6.99,0-.11-.72-.02-.72,.19h0Z"/><path class="cls-3" d="M242.19,114.55c-.15,4.69-.41,10.21,2.52,14.2,1.79,2.44,4.96,4.27,7.96,2.91,1.85-.84,2.87-2.67,4.31-4.01,1.81-1.68,4.32-1.99,6.58-1.08s3.49,2.64,4.45,4.7c.88,1.87,1.73,3.71,3.59,4.8,2.54,1.5,5.97,1.18,8.23-.71,2.92-2.44,3.59-6.87,2.77-10.41-.98-4.2-4.44-6.78-6.86-10.11-2.72-3.74-3.14-8.72-.66-12.73,1.51-2.44,4.03-4.11,6.89-4.46,2.09-.25,4.24,.68,6.28,.16,1.74-.45,2.54-2,3.12-3.58,.72-1.96,1.07-4.08,.95-6.16-.24-4.1-2.68-7.73-6.91-8.42-3.82-.62-7.41,1.35-10.31,3.65-1.99,1.58-3.77,3.63-6.09,4.73-2.76,1.31-5.68,.22-6.88-2.55-1.53-3.53-.53-8.03-3.22-11.09-2.11-2.4-5.81-2.9-8.37-.94-3.1,2.36-3.63,6.78-2.41,10.25,1.52,4.32,4.67,8.24,2.41,12.96-.44,.92-1.05,1.77-1.82,2.45-1.57,1.37-3.4,1.38-5.36,1.03-2.09-.38-4.07-.78-6.19-.4-3.78,.68-6.71,3.52-7.09,7.42-.42,4.29,2.85,7.38,6.81,8.23,2.07,.44,4.17,.31,6.2-.26,.42-.12,.36-.37-.07-.25-4.49,1.26-10.74-.26-12.05-5.36-.51-1.98-.1-4.15,.91-5.91,1.41-2.46,4.01-3.71,6.79-3.74,3.63-.04,7.2,1.98,10.42-.58,2.93-2.32,3.58-6.32,2.41-9.71-1.38-4-4.15-7.44-2.99-11.9,.52-1.99,1.79-4.16,3.82-4.89s4.37,.2,5.79,1.73c2.7,2.93,1.82,7.36,3.17,10.85,1.2,3.12,4.31,4.2,7.37,3.1,1.73-.62,3.18-1.83,4.54-3.02,1.87-1.63,3.73-3.3,5.95-4.44,4.39-2.25,9.83-1,11.73,3.83,.73,1.85,.86,3.9,.64,5.86s-.76,4.7-2.18,6.13c-1.26,1.26-2.94,.69-4.44,.51-.9-.11-1.81-.11-2.71,0-1.49,.18-2.96,.66-4.26,1.41-3.29,1.91-5.16,5.54-5.24,9.3-.09,4.15,2.3,7.14,4.92,10.07s4.77,6.22,4.57,10.44-3.03,9.01-7.91,8.01c-1.98-.41-3.55-1.71-4.53-3.45s-1.53-3.62-2.91-5.06c-2.01-2.08-5.12-2.87-7.87-1.96-1.45,.48-2.54,1.41-3.55,2.54-1.69,1.9-3.4,3.84-6.21,2.84-4.15-1.48-5.75-6.18-6.17-10.17-.24-2.31-.18-4.65-.1-6.97,0-.13-.72-.03-.72,.19h0Z"/><path class="cls-3" d="M242.94,114.32c-.14,4.45-.39,9.66,2.28,13.49,1.73,2.47,4.93,4.39,7.91,2.92,1.8-.89,2.77-2.74,4.25-4.01,1.88-1.62,4.51-1.69,6.66-.57,1.99,1.04,3.01,2.82,3.93,4.79,.82,1.75,1.75,3.35,3.53,4.26,2.46,1.27,5.65,.84,7.72-.99,2.76-2.45,3.35-6.77,2.46-10.2-1.05-4.07-4.55-6.53-6.81-9.87-2.45-3.61-2.58-8.42-.16-12.1,1.56-2.37,4.19-3.92,7.03-4.08,1.86-.11,3.79,.71,5.62,.15,1.59-.49,2.31-1.96,2.84-3.43,.69-1.89,1.02-3.93,.91-5.94-.22-3.89-2.52-7.36-6.52-8.08-3.75-.67-7.28,1.28-10.1,3.56-1.88,1.51-3.56,3.45-5.77,4.5-2.71,1.29-5.52,.18-6.64-2.54-1.44-3.49-.45-7.96-3.3-10.85-2.07-2.1-5.47-2.4-7.82-.59-3.08,2.37-3.46,6.78-2.18,10.19,1.57,4.18,4.45,8.09,1.95,12.59-.53,.95-1.26,1.81-2.17,2.41-1.67,1.1-3.62,.66-5.44,.3s-3.5-.5-5.26-.13c-3.49,.73-6.14,3.42-6.53,7.02-.46,4.25,2.81,7.3,6.75,8.06,1.93,.37,3.87,.24,5.75-.3,.42-.12,.36-.38-.07-.26-4.26,1.21-10.17-.2-11.51-4.99-1.3-4.68,2.28-9.18,6.99-9.43,3.49-.18,6.98,1.91,10.15-.41,2.83-2.07,3.66-5.88,2.66-9.12-1.21-3.94-4.07-7.28-3.04-11.65,.44-1.86,1.5-3.8,3.25-4.71,2.01-1.05,4.49-.16,5.96,1.4,2.65,2.82,1.78,7.13,3.08,10.51,1.14,2.99,4.15,4.03,7.06,2.97,1.71-.62,3.12-1.81,4.47-3,1.78-1.56,3.56-3.15,5.68-4.23,4.24-2.14,9.42-.91,11.21,3.76,.7,1.83,.82,3.87,.56,5.8-.23,1.7-.72,4.47-2.07,5.68-1.66,1.48-4.53,.26-6.58,.46-1.59,.16-3.15,.66-4.52,1.49-2.93,1.77-4.64,4.99-4.87,8.37-.27,4,1.82,6.99,4.36,9.83s4.8,5.93,4.73,10.05-2.45,8.67-7.06,8.17c-1.9-.21-3.53-1.32-4.57-2.9-1.09-1.67-1.57-3.67-2.92-5.18-1.87-2.08-4.85-2.94-7.53-2.13-1.39,.42-2.48,1.25-3.44,2.32-1.66,1.84-3.25,3.94-6.06,2.97-4.1-1.43-5.62-6.08-6-10-.21-2.17-.14-4.35-.07-6.52,0-.14-.72-.04-.72,.19h0Z"/><path class="cls-3" d="M243.68,114.01c-.14,4.13-.35,8.83,1.84,12.53,1.5,2.53,4.71,4.9,7.74,3.55,1.72-.77,2.67-2.48,3.99-3.72,1.54-1.45,3.67-1.9,5.68-1.26s3.38,2.16,4.29,4.01c.85,1.74,1.54,3.56,3.2,4.71,2.43,1.67,5.86,1.45,8.04-.55,2.52-2.31,3.15-6.23,2.46-9.45-.83-3.9-3.92-6.32-6.19-9.37-2.7-3.61-3.11-8.52-.45-12.32,1.41-2.02,3.65-3.34,6.09-3.66,1.87-.24,3.75,.56,5.58,.18,1.66-.34,2.43-1.82,2.98-3.28,.68-1.82,1.03-3.78,.95-5.72-.16-3.68-2.13-7.08-5.88-8s-7.32,1.07-10.15,3.38c-1.84,1.5-3.52,3.46-5.76,4.39-2.43,1.01-4.95,.09-6-2.35-1.42-3.32-.46-7.52-3.02-10.37-2.01-2.23-5.45-2.7-7.8-.74-2.75,2.29-3.22,6.32-2.09,9.53,1.43,4.09,4.43,7.89,1.99,12.28-1.38,2.48-3.6,3.31-6.34,2.82-1.97-.35-3.84-.76-5.84-.39-3.54,.66-6.17,3.49-6.47,7.1-.32,3.8,2.47,6.66,5.99,7.56,2.01,.52,4.08,.43,6.07-.13,.45-.13,.31-.65-.14-.53-4.1,1.16-9.88-.12-11.02-4.85s2.48-8.57,6.94-8.75c3.5-.14,6.94,1.93,9.95-.74,2.43-2.16,3.07-5.61,2.13-8.63-1.18-3.79-3.89-6.99-2.85-11.18,.45-1.81,1.53-3.67,3.31-4.45,1.91-.84,4.18-.07,5.53,1.42,2.44,2.69,1.65,6.74,2.84,9.93,1.07,2.86,3.88,4.09,6.75,3.08,1.74-.62,3.16-1.88,4.52-3.08,1.64-1.46,3.31-2.91,5.28-3.9,3.99-2.01,8.95-1.03,10.69,3.42,.71,1.81,.79,3.81,.53,5.72-.25,1.77-.85,4.86-2.64,5.71-1.65,.78-3.96-.21-5.77-.01-1.52,.16-2.99,.66-4.27,1.48-2.88,1.83-4.51,5.12-4.61,8.49-.11,3.71,1.86,6.49,4.22,9.14,2.56,2.87,4.68,5.81,4.49,9.84-.17,3.71-2.45,7.88-6.7,7.52-1.84-.16-3.45-1.21-4.44-2.75s-1.49-3.54-2.8-4.98c-1.78-1.96-4.6-2.89-7.17-2.13-1.41,.42-2.48,1.31-3.44,2.4-1.38,1.55-2.73,3.33-5.06,2.93-4.18-.72-5.9-5.6-6.3-9.25-.24-2.2-.18-4.43-.11-6.64,.01-.39-.72-.3-.74,.05h0Z"/><path class="cls-3" d="M244.44,113.86c-.14,4.05-.37,8.72,1.95,12.27,1.54,2.36,4.51,4.25,7.32,2.92,1.49-.7,2.37-2.14,3.49-3.28,1.68-1.71,3.99-2.16,6.19-1.2,1.96,.86,3.01,2.52,3.88,4.4,.75,1.61,1.53,3.11,3.13,4.02,2.22,1.26,5.15,.95,7.11-.66,2.57-2.11,3.23-5.97,2.59-9.09-.76-3.73-3.67-6.05-5.86-8.95-2.54-3.35-3.01-7.78-.84-11.47,1.24-2.12,3.41-3.67,5.85-4.05,1.89-.29,3.79,.53,5.64,.12,3.21-.7,3.86-5.76,3.78-8.44-.1-3.6-2.04-6.94-5.74-7.74-3.41-.73-6.67,.98-9.27,3.03-1.78,1.41-3.33,3.23-5.37,4.28-2.49,1.29-5.16,.4-6.23-2.18-1.31-3.18-.42-7.21-2.9-9.91-1.78-1.94-4.82-2.39-7.02-.9-2.88,1.94-3.55,5.94-2.55,9.07,1.24,3.88,4.14,7.32,2.31,11.56-.4,.91-.97,1.75-1.72,2.41-1.32,1.17-2.87,1.24-4.55,.94-1.93-.34-3.76-.73-5.72-.34-3.3,.66-5.8,3.21-6.14,6.61-.39,3.86,2.54,6.63,6.11,7.37,1.8,.37,3.62,.24,5.38-.26,.42-.12,.35-.41-.08-.29-4.09,1.16-9.8-.35-10.63-5.14-.32-1.86,.19-3.89,1.29-5.41,1.48-2.06,3.99-2.87,6.46-2.68,3.07,.24,5.94,1.53,8.53-.79s2.9-5.76,1.79-8.79c-1.31-3.55-3.61-6.67-2.38-10.63,.58-1.84,1.93-3.84,4-4.13,1.81-.25,3.64,.76,4.68,2.2,1.98,2.74,1.17,6.48,2.49,9.47,1.17,2.64,3.96,3.36,6.53,2.36,3.58-1.4,5.84-4.98,9.29-6.69,4.02-1.99,8.77-.59,10.23,3.85,.59,1.78,.61,3.72,.29,5.56-.14,.81-.35,1.61-.63,2.39-.55,1.55-1.27,2.97-3.15,2.96-1.65-.01-3.13-.45-4.79-.15-1.34,.24-2.63,.75-3.76,1.51-2.69,1.82-4.14,5-4.16,8.2-.02,3.57,2.01,6.16,4.26,8.7,2.43,2.74,4.27,5.61,4.04,9.4s-2.54,7.74-6.73,7.06c-1.84-.3-3.27-1.53-4.15-3.12-.81-1.47-1.29-3.1-2.45-4.35-1.74-1.89-4.51-2.65-6.96-1.85-1.21,.39-2.16,1.13-3.02,2.06-1.57,1.72-3.01,3.72-5.65,2.79-3.71-1.32-5.05-5.62-5.39-9.15-.19-2.01-.13-4.04-.06-6.05,0-.16-.72-.05-.72,.19h0Z"/><path class="cls-3" d="M245.19,113.63c-.14,4.06-.39,8.94,2.27,12.34,1.55,1.97,4.07,3.27,6.51,2.2,1.37-.6,2.22-1.85,3.19-2.92,1.71-1.87,4.1-2.42,6.38-1.26,3.45,1.75,3.25,6.41,6.69,8.09,2.14,1.04,4.89,.61,6.67-.94,2.42-2.1,2.98-5.86,2.29-8.84-.84-3.66-3.89-5.87-5.91-8.82-2.23-3.25-2.36-7.57-.16-10.89,1.43-2.17,3.87-3.59,6.49-3.59,1.53,0,3.08,.6,4.59,.09,2.8-.94,3.37-5.64,3.26-8.14-.16-3.51-2.18-6.7-5.84-7.26-3.01-.46-5.89,.99-8.22,2.78-1.78,1.36-3.29,3.14-5.25,4.26-2.55,1.45-5.19,.35-6.16-2.25-1.14-3.05-.34-6.96-2.83-9.44-1.73-1.72-4.44-2.01-6.5-.71-2.85,1.8-3.47,5.76-2.5,8.76,1.22,3.79,4.03,7.17,2.06,11.28-.42,.87-1.01,1.68-1.77,2.28-1.57,1.24-3.38,.82-5.13,.48-1.56-.3-3.12-.39-4.68-.02-3.08,.73-5.34,3.15-5.63,6.34-.33,3.65,2.45,6.26,5.83,6.94,1.72,.35,3.46,.2,5.14-.28,.41-.12,.37-.31-.05-.19-3.8,1.09-9.09-.29-10.08-4.65-.39-1.71-.01-3.56,.88-5.06,1.33-2.24,3.81-3.23,6.36-3.04,2.84,.21,5.53,1.41,8.02-.58s3.03-5.55,1.98-8.5c-1.21-3.39-3.4-6.33-2.36-10.1,.51-1.82,1.73-3.7,3.68-4.08s3.76,.66,4.78,2.26c1.72,2.68,.96,6.13,2.26,8.96,1.11,2.42,3.69,3.04,6.06,2.17,3.4-1.25,5.55-4.63,8.72-6.32,3.94-2.11,8.66-.79,10.06,3.64,.51,1.61,.55,3.35,.3,5-.29,1.92-.95,5-3.22,5.43-.77,.14-1.74-.21-2.53-.28-.71-.06-1.41-.03-2.11,.07-1.18,.17-2.34,.55-3.38,1.15-2.7,1.54-4.3,4.44-4.52,7.5-.26,3.55,1.56,6.2,3.8,8.74s4.08,5.07,4.11,8.58-2.14,8.33-6.53,7.47c-1.66-.32-2.97-1.43-3.78-2.88s-1.27-3.07-2.42-4.3c-1.67-1.79-4.24-2.44-6.57-1.72-1.06,.33-1.95,.92-2.72,1.72-1.59,1.65-3,3.95-5.68,2.9-3.4-1.33-4.69-5.18-5.04-8.5-.21-2.01-.15-4.04-.08-6.05,0-.08-.72,0-.72,.19h0Z"/><path class="cls-3" d="M245.94,113.4c-.13,3.88-.38,8.52,2.13,11.77,1.5,1.94,3.99,3.21,6.36,2.08,1.45-.69,2.26-2.14,3.37-3.22,1.66-1.61,4.04-1.7,5.97-.53,3.03,1.83,2.87,6.17,6.22,7.62,2.05,.89,4.63,.41,6.27-1.1,2.31-2.13,2.77-5.86,1.98-8.76-.94-3.44-3.94-5.51-5.77-8.42-1.94-3.08-1.88-7.14,.18-10.16,1.5-2.2,4.05-3.48,6.72-3.28,1.27,.1,2.56,.49,3.81,.03,1.42-.52,1.99-1.98,2.42-3.32,.5-1.55,.74-3.22,.6-4.84-.27-3.3-2.32-6.17-5.76-6.59-2.92-.35-5.66,1.14-7.88,2.89-1.59,1.26-2.97,2.89-4.75,3.88-2.42,1.35-4.89,.37-5.83-2.12-1.11-2.95-.31-6.73-2.75-9.1-1.72-1.67-4.44-1.87-6.39-.47-2.55,1.84-3.08,5.48-2.16,8.3,1.17,3.59,3.78,6.79,1.95,10.7-.38,.82-.92,1.58-1.62,2.16-1.5,1.24-3.23,.84-4.93,.52-1.43-.27-2.85-.37-4.28-.06-2.99,.64-5.22,2.92-5.56,6.01-.39,3.55,2.29,6.14,5.61,6.77,1.63,.31,3.26,.17,4.85-.29,.41-.12,.37-.33-.06-.21-3.71,1.07-8.81-.34-9.61-4.64-.31-1.66,.11-3.44,1.02-4.85,1.44-2.22,4.06-2.97,6.59-2.61s5.01,1.11,7.16-.81c2.3-2.05,2.67-5.28,1.66-8.06-1.17-3.24-3.25-6.1-2.16-9.7,.58-1.92,1.98-3.84,4.16-3.89,1.58-.03,3.12,1.09,3.9,2.39,1.6,2.67,.76,6.08,2.24,8.78,1.21,2.21,3.74,2.53,5.9,1.62,3.05-1.27,5.02-4.28,7.9-5.87,3.72-2.06,8.26-.95,9.66,3.3,.5,1.52,.55,3.18,.32,4.76-.12,.85-.33,1.7-.62,2.51-.12,.35-.26,.69-.41,1.03-.36,.77-.54,.96-1.38,1.36-.89,.43-1.4,.35-2.3,.23-.27-.04-.53-.07-.8-.09-.65-.05-1.3-.02-1.94,.07-1.17,.17-2.3,.55-3.32,1.14-2.52,1.46-4,4.15-4.26,7.01-.29,3.23,1.22,5.78,3.27,8.13,2.16,2.48,4.12,4.87,4.23,8.31s-1.92,8.31-6.21,7.41c-1.57-.33-2.8-1.35-3.58-2.74s-1.18-2.88-2.25-4.05c-1.56-1.72-3.98-2.4-6.2-1.75-1.08,.31-1.98,.91-2.75,1.72-1.41,1.49-2.62,3.58-5.02,2.85-3.46-1.05-4.77-4.97-5.12-8.2-.21-1.93-.14-3.88-.07-5.82,0-.09-.72,0-.72,.19h0Z"/><path class="cls-3" d="M246.69,113.11c-.12,3.51-.34,7.55,1.57,10.67,1.26,2.06,3.83,3.87,6.3,2.8,1.36-.59,2.15-1.87,3.13-2.91,1.34-1.4,3.14-1.93,5-1.29s2.87,2.18,3.66,3.9c.62,1.36,1.27,2.67,2.57,3.49,2.04,1.28,4.79,.96,6.55-.66,2.1-1.94,2.62-5.24,2.07-7.93-.67-3.29-3.26-5.33-5.14-7.92-2.25-3.1-2.46-7.37-.13-10.51,1.26-1.7,3.21-2.78,5.33-2.91,1.46-.09,3.03,.59,4.46,.08,2.57-.91,3.08-5.36,2.97-7.62-.15-3.06-1.82-5.9-4.96-6.59s-5.93,.94-8.21,2.81c-1.54,1.26-2.9,2.87-4.72,3.75-2.19,1.06-4.35,.04-5.16-2.17-1.04-2.83-.27-6.44-2.64-8.7-1.69-1.62-4.32-1.82-6.17-.35-2.41,1.92-2.81,5.43-1.85,8.18,1.21,3.48,3.68,6.77,1.46,10.46-.48,.79-1.13,1.52-1.97,1.93-1.33,.66-2.77,.27-4.15,0s-2.85-.34-4.26,.03c-2.88,.76-4.9,3.34-4.95,6.32s2.33,5.33,5.23,5.95c1.61,.35,3.21,.24,4.78-.21,.44-.13,.33-.56-.12-.43-3.58,1.04-8.51-.28-9.12-4.53-.57-4.01,2.76-7.14,6.67-6.88,2.7,.18,5.19,1.35,7.45-.76,1.99-1.86,2.49-4.74,1.71-7.28-.98-3.15-3.16-5.79-2.31-9.28,.4-1.66,1.47-3.49,3.23-3.95,1.6-.42,3.28,.42,4.23,1.7,1.78,2.38,1.05,5.66,2.16,8.29,.94,2.24,3.22,3.06,5.47,2.28,3.2-1.11,5.19-4.38,8.17-5.93,3.36-1.74,7.45-.81,8.81,2.98,.51,1.41,.58,2.96,.4,4.44-.21,1.71-.79,5.01-2.92,5.26-1.31,.16-2.64-.36-3.98-.22s-2.59,.6-3.69,1.33c-2.26,1.5-3.57,4.1-3.75,6.78-.2,2.95,1.14,5.31,3,7.48,2.08,2.43,4.06,4.75,4.13,8.12,.06,3.08-1.53,7.05-5.16,7-4.3-.06-4.22-4.88-6.85-7.09-1.79-1.5-4.42-1.84-6.47-.66-1.32,.76-2.07,2.08-3.16,3.1-1.76,1.65-3.97,.88-5.47-.7-2.89-3.03-2.63-7.84-2.49-11.72,.01-.34-.72-.21-.73,.07h0Z"/><path class="cls-3" d="M247.44,112.94c-.12,3.42-.35,7.46,1.69,10.43,1.26,1.83,3.53,3.22,5.75,2.29,1.25-.52,2.01-1.65,2.88-2.62,1.47-1.64,3.53-2.12,5.5-1.06,2.82,1.51,2.67,5.31,5.42,6.84,1.91,1.06,4.43,.69,6.03-.77,1.99-1.82,2.5-4.91,2.01-7.46-.59-3.06-2.92-5-4.71-7.37-2.24-2.98-2.55-6.99-.4-10.14,1.23-1.8,3.32-2.97,5.51-2.95,1.32,0,2.71,.55,4,.01,2.39-1,2.84-5.12,2.69-7.36-.19-2.9-1.87-5.53-4.87-6.07-2.75-.49-5.36,.93-7.44,2.6-1.45,1.17-2.71,2.69-4.37,3.58-2.28,1.23-4.46,.14-5.21-2.2-.86-2.67-.23-6.11-2.54-8.15-1.6-1.42-4.02-1.53-5.71-.22-2.36,1.82-2.72,5.22-1.79,7.86,1.15,3.28,3.35,6.29,1.42,9.78-.44,.8-1.08,1.59-1.92,2.01-1.24,.63-2.63,.23-3.92,0-1.35-.25-2.71-.3-4.05,.06-2.65,.71-4.54,2.97-4.71,5.73-.18,2.97,1.98,5.19,4.77,5.84,1.57,.36,3.16,.26,4.7-.19,.42-.12,.35-.43-.08-.3-3.45,1-8.09-.36-8.63-4.41-.2-1.52,.25-3.17,1.16-4.4,1.35-1.84,3.59-2.37,5.75-2.08,2.42,.32,4.58,1,6.54-.88s2.3-4.5,1.54-6.9c-.95-3.01-3-5.58-2.13-8.91,.41-1.59,1.5-3.45,3.28-3.74s3.45,.97,4.19,2.5c1.15,2.39,.52,5.3,1.82,7.63,1.1,1.97,3.39,2.27,5.34,1.43,2.82-1.21,4.6-4.03,7.3-5.48,3.41-1.82,7.39-.59,8.51,3.26,.7,2.42,.44,9.18-3.23,8.84-2.36-.22-4.45-.26-6.52,1.1-2.21,1.45-3.47,3.98-3.61,6.59-.16,2.96,1.32,5.21,3.18,7.35s3.56,4.45,3.56,7.53-1.8,7.14-5.52,6.45-3.45-4.83-5.92-6.79c-1.71-1.36-4.16-1.57-6.07-.49-1.34,.76-2.03,2.16-3.18,3.13-1.81,1.52-3.94,.35-5.23-1.19-2.46-2.93-2.2-7.34-2.07-10.92,0-.17-.72-.06-.72,.19h0Z"/><path class="cls-3" d="M248.19,112.64c-.12,3.21-.33,6.94,1.46,9.78,1.17,1.86,3.5,3.42,5.71,2.38,1.16-.55,1.84-1.67,2.69-2.57,1.21-1.29,2.83-1.82,4.53-1.19,3.21,1.18,2.9,5.25,5.73,6.79,1.82,.99,4.15,.64,5.65-.76,1.85-1.73,2.35-4.6,1.93-7.01-.52-3.01-2.78-4.88-4.51-7.22-2.03-2.75-2.33-6.43-.42-9.34,1.07-1.64,2.85-2.75,4.82-2.92,1.36-.12,2.8,.51,4.12,.05,2.35-.82,2.82-4.91,2.72-6.98-.13-2.64-1.49-5.14-4.17-5.88s-5.45,.69-7.55,2.41c-1.37,1.12-2.56,2.57-4.15,3.41-1.95,1.03-3.93,.31-4.71-1.72-1-2.6-.22-5.95-2.44-8.03-1.6-1.5-4.07-1.58-5.71-.1-1.93,1.74-2.33,4.67-1.58,7.05,.56,1.78,1.63,3.38,2.04,5.21s-.04,4.05-1.44,5.47c-1.86,1.88-4.22,.57-6.47,.55-1.26-.01-2.53,.26-3.62,.91-2.52,1.51-3.73,5.1-2.25,7.73,1.62,2.88,5.45,3.43,8.36,2.57,.44-.13,.32-.59-.12-.46-3.24,.96-7.67-.28-8.11-4.15s2.79-6.49,6.42-6.05c2.4,.29,4.5,1.01,6.39-.92,1.72-1.75,2.09-4.34,1.35-6.62-.89-2.75-2.72-5.1-2.02-8.14,.35-1.54,1.34-3.31,3-3.68s3.17,.65,3.93,2c1.28,2.29,.59,5.17,1.82,7.47,.96,1.79,2.96,2.27,4.79,1.59,2.88-1.06,4.65-4.03,7.37-5.43,3.05-1.56,6.62-.57,7.75,2.83,.8,2.4,.58,8.83-3.05,8.58-2.31-.16-4.27-.25-6.26,1.17s-3.19,3.93-3.27,6.42c-.08,2.67,1.23,4.73,2.91,6.69,1.82,2.12,3.42,4.19,3.46,7.11s-1.49,6.54-4.86,6.25c-3.62-.31-3.51-4.36-5.77-6.33-1.59-1.38-3.94-1.71-5.8-.68-1.1,.61-1.77,1.65-2.61,2.55-1.58,1.69-3.52,1.36-5.05-.19-2.68-2.72-2.42-7.16-2.29-10.67,.01-.36-.72-.24-.73,.07h0Z"/><path class="cls-3" d="M248.94,112.43c-.12,3.05-.34,6.59,1.38,9.28,1.06,1.67,3.04,3.01,5.07,2.29,1.01-.36,1.68-1.17,2.35-1.96,1.33-1.57,2.96-2.54,5-1.6,2.81,1.29,2.53,5.06,5.26,6.39,1.69,.82,3.81,.44,5.18-.81,1.8-1.63,2.26-4.42,1.84-6.72-.52-2.85-2.69-4.59-4.3-6.84-1.91-2.67-2.09-6.33-.13-9.05,1.12-1.57,2.93-2.56,4.87-2.55,1.22,.01,2.49,.51,3.65-.07,2.02-1.01,2.41-4.68,2.27-6.65-.17-2.48-1.54-4.79-4.09-5.37s-4.82,.66-6.69,2.14c-1.31,1.04-2.41,2.38-3.84,3.26-2.11,1.31-4.16,.42-4.85-1.87s-.18-5.44-2.22-7.27c-1.46-1.31-3.67-1.36-5.19-.13-1.99,1.61-2.37,4.52-1.64,6.84,.52,1.65,1.5,3.13,1.88,4.83,.4,1.78,.01,3.75-1.22,5.13-1.75,1.97-4.05,.65-6.25,.66-1.27,0-2.55,.34-3.61,1.04-2.31,1.54-3.27,4.98-1.73,7.37,1.62,2.52,5.07,2.89,7.71,2.11,.42-.13,.35-.45-.09-.33-3.11,.92-7.25-.36-7.63-4.04-.14-1.35,.28-2.8,1.09-3.89,1.3-1.75,3.41-2.09,5.44-1.75s3.86,.66,5.47-.92c1.7-1.67,2.04-4.17,1.32-6.37-.86-2.62-2.55-4.87-1.84-7.77,.36-1.47,1.36-3.24,3.02-3.45s3.03,1,3.63,2.39c.94,2.18,.37,4.84,1.64,6.89,.95,1.54,2.77,1.82,4.37,1.24,2.64-.95,4.28-3.66,6.7-5.02,2.97-1.67,6.49-.75,7.56,2.65,.67,2.14,.57,7.61-2.35,8.14-.56,.1-1.31-.17-1.89-.21-.5-.03-1.01,0-1.51,.07-1.05,.16-2.07,.56-2.95,1.16-1.86,1.27-2.94,3.39-3.15,5.6-.23,2.49,.78,4.54,2.33,6.4,1.68,2.02,3.38,3.9,3.58,6.65s-.98,6.53-4.21,6.51c-3.65-.02-3.55-4.2-5.77-6.07-1.43-1.21-3.48-1.48-5.18-.69-1.04,.49-1.7,1.35-2.44,2.2-.87,1-1.97,1.8-3.35,1.28-.71-.27-1.33-.76-1.83-1.32-2.35-2.61-2.1-6.71-1.98-9.96,.01-.27-.71-.12-.72,.1h0Z"/><path class="cls-3" d="M249.69,112.19c-.11,2.9-.32,6.28,1.31,8.84,.98,1.54,2.86,2.84,4.73,2.16,.94-.34,1.57-1.1,2.19-1.84,1.16-1.38,2.53-2.35,4.38-1.7,2.79,.98,2.54,4.38,4.78,5.88,1.52,1.02,3.6,.87,5.03-.24,1.76-1.36,2.34-3.85,2.14-5.97-.26-2.88-2.19-4.64-3.85-6.8-1.91-2.5-2.31-5.81-.58-8.55,.9-1.43,2.41-2.46,4.1-2.66,1.23-.15,2.53,.42,3.73,.03,2.12-.69,2.57-4.25,2.52-6.1-.06-2.3-1.09-4.59-3.4-5.37s-4.63,.27-6.46,1.66c-1.15,.88-2.12,1.97-3.26,2.86-1.85,1.44-4.21,1.48-5.07-1-.78-2.24-.18-5.11-1.97-6.94-1.26-1.29-3.29-1.56-4.79-.52-1.86,1.28-2.48,3.92-2.02,6.03,.37,1.7,1.37,3.18,1.84,4.84s.25,3.66-.92,5.09c-1.56,1.9-3.6,.85-5.66,.77-1.28-.05-2.6,.24-3.67,.96-2.12,1.44-3.1,4.58-1.79,6.87,1.45,2.55,4.81,2.99,7.39,2.23,.44-.13,.32-.58-.12-.45-3.13,.93-7.2-.52-7.12-4.3,.03-1.27,.52-2.59,1.42-3.5,1.52-1.55,3.5-1.42,5.44-1.07s3.66,.1,4.91-1.61,1.33-3.94,.58-5.94c-.95-2.53-2.42-4.85-1.31-7.62,.52-1.31,1.6-2.6,3.15-2.46s2.54,1.34,2.97,2.68c.63,1.95,.25,4.27,1.36,6.06,1.01,1.63,3,1.77,4.6,.98,2.39-1.18,3.87-3.64,6.3-4.8,2.92-1.4,5.98,.02,6.69,3.19,.28,1.23,.21,2.53-.04,3.76-.14,.66-.33,1.31-.6,1.92-.14,.33-.3,.71-.56,.97-.65,.66-1.47,.45-2.2,.36-1.95-.25-3.88,.2-5.4,1.5-1.6,1.36-2.46,3.48-2.48,5.56-.03,2.33,1.09,4.14,2.55,5.85,1.66,1.96,3.08,3.89,3.03,6.59s-1.71,6.13-4.89,5.24c-2.71-.76-2.59-4.05-4.54-5.64-1.4-1.14-3.39-1.36-4.99-.5-.98,.53-1.57,1.43-2.29,2.23-1.43,1.59-3.18,1.32-4.56-.16-2.28-2.44-2.02-6.36-1.89-9.44,.01-.35-.72-.22-.73,.07h0Z"/><path class="cls-3" d="M250.44,111.96c-.11,2.65-.3,5.71,1.08,8.1,.88,1.54,2.68,2.91,4.53,2.27,.99-.34,1.61-1.17,2.26-1.94,1.16-1.38,2.73-2.13,4.46-1.18,2.32,1.27,2.04,4.59,4.57,5.64,4.31,1.79,6.64-3.57,5.97-7.01-.48-2.48-2.37-4.02-3.75-6-1.76-2.53-1.75-6.08,.35-8.44,1.13-1.27,2.76-1.86,4.43-1.72,1.01,.08,2.07,.36,2.94-.33,1.62-1.28,1.91-4.55,1.62-6.42-.33-2.15-1.75-3.98-4-4.27s-4.29,1.01-5.92,2.43c-1.19,1.03-2.39,2.62-3.98,3.01-1.92,.47-2.89-1.13-3.21-2.74-.4-2.03-.17-4.54-1.95-5.98-1.33-1.08-3.21-1.03-4.5,.09-1.74,1.52-2.04,4.14-1.36,6.23,.49,1.51,1.39,2.88,1.65,4.47s-.25,3.58-1.61,4.63c-1.51,1.18-3.41,.11-5.12,.16-1.18,.04-2.36,.4-3.3,1.15-1.8,1.43-2.54,4.29-1.36,6.32,1.37,2.36,4.49,2.76,6.89,2.04,.44-.13,.32-.59-.12-.45-2.88,.87-6.64-.45-6.61-3.93,.01-1.27,.52-2.61,1.44-3.49,1.31-1.25,3.06-1.26,4.72-.94s3.25,.29,4.5-1.09c1.32-1.46,1.64-3.53,1.1-5.38-.67-2.32-2.21-4.27-1.71-6.82,.24-1.2,.91-2.63,2.12-3.13,1.54-.64,3.08,.53,3.67,1.9,.79,1.84,.37,4.01,1.25,5.82,.69,1.41,2.13,1.97,3.62,1.58,2.19-.57,3.63-2.73,5.37-4.01,1.2-.88,2.62-1.61,4.15-1.39s2.62,1.23,3.16,2.57c.46,1.14,.53,2.41,.38,3.62-.17,1.4-.59,3.91-2.44,4-.95,.05-1.84-.25-2.81-.1-.86,.14-1.7,.46-2.43,.94-3.55,2.34-3.72,7.24-1.29,10.41,1.41,1.84,3.08,3.4,3.43,5.8s-.46,5.87-3.24,6.23c-3.39,.45-3.39-3.53-5.27-5.22-1.25-1.12-3.07-1.44-4.6-.73-.94,.44-1.53,1.21-2.18,1.98s-1.35,1.48-2.48,1.3c-.76-.12-1.42-.62-1.93-1.17-2.14-2.3-1.89-5.99-1.77-8.89,.01-.35-.72-.23-.73,.07h0Z"/><path class="cls-3" d="M251.19,111.79c-.11,2.66-.33,5.87,1.38,8.12,.97,1.27,2.54,2.02,4.07,1.34,.78-.34,1.29-1,1.83-1.64,.72-.86,1.39-1.66,2.7-1.59,.66,.03,1.31,.31,1.83,.7,1.81,1.36,1.61,4.21,3.94,5.05,3.95,1.42,6.11-3.32,5.54-6.52-.43-2.43-2.31-3.88-3.6-5.85-1.44-2.2-1.44-5.15,.07-7.34,1.11-1.61,2.8-2.28,4.72-2.07,.75,.08,1.51,.18,2.21-.19,1.7-.89,2-3.94,1.87-5.63-.15-2.1-1.36-4.05-3.56-4.39-1.85-.29-3.63,.61-5.05,1.71-.99,.77-1.82,1.71-2.79,2.5s-2.73,1.33-3.71,.25c-.43-.47-.64-1.11-.78-1.72-.47-2.03-.1-4.76-2.13-6.04-1.16-.73-2.68-.6-3.76,.2-1.69,1.25-2.09,3.7-1.56,5.61,.79,2.85,2.95,5.68,.59,8.47-1.42,1.68-3.37,.54-5.17,.62-.94,.04-1.87,.3-2.67,.79-2.04,1.25-2.98,4.24-1.62,6.31s4.11,2.3,6.29,1.64c.41-.13,.36-.37-.07-.24-2.81,.85-6.24-.64-6.13-3.92,.04-1.17,.53-2.4,1.37-3.22,1.61-1.55,3.45-.84,5.35-.68,1.41,.11,2.67-.46,3.5-1.61,1.18-1.63,1.13-3.59,.44-5.4-.84-2.2-1.96-4.18-1.02-6.58,.55-1.39,1.94-2.67,3.49-1.89,1.02,.5,1.56,1.52,1.81,2.58,.41,1.69,.1,3.95,1.36,5.33,.94,1.03,2.47,.93,3.64,.38,1.99-.93,3.25-2.96,5.14-4.08,2.95-1.77,5.83,.03,6.24,3.2,.14,1.11,.02,2.26-.27,3.33-.13,.47-.27,.98-.51,1.41-.59,1.09-1.44,1-2.43,.9-1.47-.14-2.98,.25-4.18,1.13-1.46,1.07-2.29,2.78-2.49,4.56-.22,2.04,.56,3.75,1.81,5.3,1.37,1.71,2.74,3.24,2.92,5.52,.09,1.09-.06,2.21-.49,3.22-.61,1.44-2,2.69-3.68,2.16-2.4-.76-2.2-3.82-4.12-5.14-1.16-.8-2.67-.87-3.94-.28-.89,.41-1.44,1.14-2.05,1.87-1.44,1.71-3.09,1.25-4.27-.27-1.72-2.22-1.49-5.45-1.38-8.09,0-.12-.72-.03-.72,.19h0Z"/><path class="cls-3" d="M251.94,111.5c-.1,2.35-.28,5.06,.94,7.17,.73,1.27,2.21,2.41,3.75,1.97,2.26-.66,2.94-4.46,5.87-2.82,1.92,1.07,1.69,3.79,3.67,4.81,1.42,.73,3.16,.29,4.21-.86,1.24-1.35,1.55-3.46,1.24-5.21-.4-2.23-2.1-3.6-3.29-5.41-1.47-2.23-1.34-5.44,.57-7.41,1.11-1.14,2.44-1.42,3.96-1.29,.81,.07,1.6,.15,2.26-.42,1.34-1.17,1.58-3.91,1.37-5.54-.24-1.81-1.35-3.43-3.23-3.78-1.98-.36-3.8,.78-5.23,2.03-.98,.86-1.87,2.05-3.08,2.59-2.11,.94-2.97-1.07-3.21-2.72-.26-1.83-.24-4.06-2.11-5.05-1.27-.67-2.75-.31-3.69,.74-1.36,1.51-1.45,3.71-.8,5.54,.49,1.38,1.33,2.72,1.35,4.23,.02,1.36-.62,3.14-1.96,3.72s-3.03-.34-4.46-.12c-.95,.15-1.87,.57-2.55,1.25-1.43,1.42-1.89,3.96-.67,5.65,1.3,1.79,3.77,2.03,5.74,1.43,.44-.14,.32-.61-.13-.47-2.41,.75-5.43-.29-5.57-3.14s2.25-4.61,4.98-4.15c1.58,.27,2.93,.39,4.1-.89,1.02-1.11,1.43-2.71,1.17-4.18-.38-2.18-1.95-3.96-1.64-6.27,.15-1.1,.69-2.45,1.75-2.94,1.34-.63,2.65,.3,3.17,1.56,.91,2.23,.17,7.59,4.24,6.44,1.85-.52,3.06-2.36,4.52-3.48,1.08-.83,2.36-1.52,3.76-1.25,1.28,.24,2.18,1.21,2.58,2.42,.6,1.83,.48,6.07-2.03,6.35-.76,.09-1.49-.19-2.27-.04-.72,.13-1.4,.41-2.01,.82-2.97,1.98-3.33,6.19-1.36,8.97,1.08,1.52,2.51,2.77,2.96,4.65,.48,2.01,.01,5.47-2.43,6.02-3.03,.68-3.09-3.16-4.76-4.59-1.04-.89-2.51-1.13-3.77-.59-.82,.36-1.36,.99-1.91,1.68-.59,.72-1.24,1.52-2.32,1.26-.56-.14-1.08-.54-1.47-.95-1.86-2.01-1.6-5.25-1.49-7.77,.02-.36-.72-.25-.73,.06h0Z"/><path class="cls-3" d="M252.7,111.29c-.1,2.21-.3,4.81,.92,6.77,.71,1.13,1.95,2,3.33,1.62,2.1-.58,2.87-4.27,5.53-2.54,1.67,1.09,1.44,3.61,3.37,4.44,3.29,1.4,5.27-2.57,4.99-5.28-.22-2.07-1.58-3.37-2.74-4.97-1.47-2.04-1.69-4.77-.19-6.89,1.08-1.54,2.51-1.81,4.27-1.67,.62,.05,1.25,0,1.77-.39,1.23-.94,1.48-3.27,1.4-4.69-.1-1.82-1.04-3.56-2.95-3.9-1.67-.3-3.26,.56-4.51,1.59-.8,.65-1.52,1.7-2.4,2.21-.4,.24-2.2,.67-2.64,.41-.23-.14-.46-.49-.58-.72-.25-.48-.35-1.03-.43-1.55-.26-1.69-.14-3.89-1.9-4.82-1.08-.57-2.42-.31-3.29,.52-1.28,1.21-1.55,3.19-1.1,4.82,.36,1.27,1.09,2.41,1.31,3.71,.12,.69,.08,1.39-.13,2.05-.32,1.05-.83,1.76-1.9,2.06-1.25,.35-2.49-.23-3.79,0-.87,.15-1.7,.53-2.34,1.16-1.26,1.23-1.73,3.43-.79,4.98,1.13,1.84,3.53,2.05,5.41,1.46,.42-.13,.35-.44-.08-.31-2.48,.77-5.25-.6-5.07-3.4,.06-.98,.44-2.01,1.17-2.69,1.53-1.4,3-.61,4.74-.59,3.11,.02,4.04-3.61,3.18-6.05-.67-1.9-1.65-3.57-.93-5.64,.43-1.23,1.55-2.5,2.96-1.77,.88,.45,1.29,1.34,1.49,2.27,.3,1.42,.08,3.19,1.02,4.4,.78,1,2.12,.97,3.18,.48,1.58-.73,2.59-2.32,3.98-3.3s3.04-1.39,4.37-.25c.78,.67,1.15,1.69,1.26,2.69s-.02,2.06-.31,3.03c-.1,.35-.22,.7-.38,1.03-.45,.93-1.28,.81-2.14,.75-1.16-.08-2.34,.25-3.29,.92-2.75,1.93-2.92,5.81-1.04,8.37,1.06,1.45,2.35,2.69,2.65,4.54,.15,.92,.1,1.89-.17,2.78-.4,1.37-1.45,2.74-3.07,2.45-2.17-.39-2.02-3.39-3.67-4.5-.96-.64-2.22-.7-3.27-.22-.61,.28-1.05,.73-1.47,1.23-.15,.18-.31,.45-.49,.61-.38,.36-1.3,.9-1.84,.83-.5-.07-1.04-.59-1.35-.95-1.66-1.88-1.42-4.88-1.31-7.2,.01-.26-.71-.1-.72,.11h0Z"/><path class="cls-3" d="M253.45,111.1c-.1,2.1-.31,4.65,.98,6.45,.72,1,1.85,1.57,3.05,1.15,.57-.2,.97-.58,1.36-1.04,.29-.34,.55-.84,.91-1.1,.92-.66,1.95-.66,2.8,.04,1.39,1.15,1.17,3.5,3.18,4.01,3.05,.79,4.57-2.8,4.22-5.27-.28-1.99-1.75-3.15-2.75-4.77-1.08-1.77-1.07-4.07,.06-5.82,.6-.92,1.57-1.61,2.68-1.76,.57-.08,1.15,.14,1.73,.1,.42-.03,.87-.15,1.21-.43,1.22-1.01,1.42-3.6,1.15-5.04-.69-3.75-4.54-3.17-6.79-1.28-.81,.68-1.47,1.59-2.36,2.18-1.87,1.23-2.78-.23-3.03-1.83s-.1-3.88-1.94-4.6c-3.01-1.18-4.48,2.83-3.83,5.11s2.37,5.04,.04,6.96c-.98,.81-2.88,.02-4.08,.23-.69,.12-1.36,.39-1.92,.83-1.42,1.13-1.98,3.47-.91,5.01s3.16,1.65,4.82,1.13c.41-.13,.36-.37-.06-.24-2.64,.82-5.06-1.02-4.5-3.76,.07-.34,.19-.67,.35-.99,.12-.24,.25-.47,.44-.67,.37-.41,1.83-1.03,2.4-1.07,.87-.06,1.68,.38,2.57,.23,2.85-.46,3.14-3.84,2.28-6.03-.68-1.73-1.33-3.39-.46-5.2,.56-1.17,1.97-1.78,2.98-.78,.68,.67,.83,1.66,.94,2.57,.15,1.23,.1,3.07,1.39,3.73,.76,.39,1.71,.19,2.44-.17,1.58-.79,2.45-2.53,4.01-3.34,2.78-1.44,4.62,.65,4.61,3.29,0,.9-.15,1.94-.54,2.77-.3,.62-.8,1.03-1.48,1.05-.38,0-.74-.09-1.12-.06-1.04,.07-2.06,.49-2.84,1.18-2.44,2.15-2.04,5.58-.2,7.92,1.08,1.37,2.02,2.65,2.07,4.45,.02,.79-.11,1.6-.41,2.34-.51,1.22-1.85,2.29-3.17,1.5-1.59-.97-1.31-3.34-3.15-4.14-.91-.4-2.02-.27-2.87,.23-.64,.38-1.04,.99-1.51,1.56-.99,1.17-2.23,.73-3.03-.38-1.3-1.79-1.08-4.34-.98-6.43,0-.12-.71-.03-.72,.19h0Z"/></g></svg>