<?xml version="1.0" encoding="utf-8"?>
<!-- Generator: Adobe Illustrator 26.5.2, SVG Export Plug-In . SVG Version: 6.00 Build 0)  -->
<svg version="1.1" id="Lag_1" xmlns="http://www.w3.org/2000/svg" xmlns:xlink="http://www.w3.org/1999/xlink" x="0px" y="0px"
	 viewBox="0 0 595.3 841.9" style="enable-background:new 0 0 595.3 841.9;" xml:space="preserve">
<style type="text/css">
	.st0{fill:#020202;}
</style>
<g id="Group_59" transform="translate(0)">
	<path id="Path_111" class="st0" d="M311.3,434.2c9.4-10.3,8.7-26.3-1.6-35.7c-10.3-9.4-26.3-8.7-35.7,1.6
		c-9.4,10.3-8.7,26.3,1.6,35.7c9,8.2,22.5,8.8,32.3,1.5l19,19c0.4,0.4,1,0.7,1.6,0.7c0.6,0,1.2-0.2,1.6-0.7c0.9-0.9,0.9-2.4,0-3.3
		L311.3,434.2z M271.6,416.8c0-11.6,9.4-21,21-21c11.6,0,21,9.4,21,21s-9.4,21-21,21C281,437.8,271.6,428.4,271.6,416.8z"/>
</g>
</svg>
