<?xml version="1.0" encoding="UTF-8"?><svg id="Lag_1" xmlns="http://www.w3.org/2000/svg" width="38.73mm" height="36.45mm" viewBox="0 0 109.78 103.32"><defs><style>.cls-1{stroke:#000;stroke-width:2px;}</style></defs><g id="magnifying-glass-browser"><g id="Group_59"><path id="Path_111" class="cls-1" d="M67.1,61.39c9.41-10.3,8.68-26.28-1.62-35.69-10.3-9.41-26.28-8.68-35.69,1.62-9.41,10.3-8.68,26.28,1.62,35.69,8.98,8.21,22.54,8.84,32.25,1.51l19.02,19.03c.43,.44,1.01,.69,1.62,.69,.61,0,1.2-.25,1.62-.69,.89-.91,.89-2.37,0-3.28l-18.83-18.87ZM27.38,44.02c0-11.57,9.38-20.96,20.96-20.96s20.96,9.38,20.96,20.96-9.38,20.96-20.96,20.96c-11.57-.01-20.95-9.39-20.96-20.96Z"/></g></g></svg>