<?xml version="1.0" encoding="UTF-8"?><svg id="Lag_1" xmlns="http://www.w3.org/2000/svg" width="22.37mm" height="22.98mm" viewBox="0 0 63.41 65.14"><defs><style>.cls-1{fill:#fff;}</style></defs><g id="Group_59"><path id="Path_111" class="cls-1" d="M43.91,42.29c9.41-10.3,8.68-26.28-1.62-35.69C31.99-2.8,16.02-2.08,6.61,8.22c-9.41,10.3-8.68,26.28,1.62,35.69,8.98,8.21,22.54,8.84,32.25,1.51l19.02,19.03c.43,.44,1.01,.69,1.62,.69,.61,0,1.2-.25,1.62-.69,.89-.91,.89-2.37,0-3.28l-18.83-18.87ZM4.2,24.93C4.2,13.35,13.58,3.97,25.15,3.97s20.96,9.38,20.96,20.96-9.38,20.96-20.96,20.96c-11.57-.01-20.95-9.39-20.96-20.96Z"/></g></svg>